<svg width="20" height="25" viewBox="0 0 20 25" fill="none" xmlns="http://www.w3.org/2000/svg">
<path d="M16.4265 10.812L16.4537 15.5744H2.98554V10.8505C2.98554 7.13886 5.99442 4.12998 9.70606 4.12998C13.4027 4.12998 16.4053 7.11546 16.4265 10.812Z" stroke="white" stroke-width="1.8"/>
<path d="M10.9343 1.99999C10.9343 1.30963 10.3747 0.74999 9.68433 0.74999C8.99397 0.749989 8.43433 1.30963 8.43433 1.99999L10.9343 1.99999ZM10.9343 4.45874L10.9343 1.99999L8.43433 1.99999L8.43433 4.45874L10.9343 4.45874Z" fill="white"/>
<path d="M12.5 21C12.5 22.4294 11.0777 23.5 9.5 23.5C7.92228 23.5 6.5 22.4294 6.5 21" stroke="white" stroke-width="1.8" stroke-linejoin="round"/>
<path d="M1 19.6003C1 17.3132 2.85401 15.4592 5.14105 15.4592H14.2276C16.5146 15.4592 18.3686 17.3132 18.3686 19.6003V19.6003C18.3686 20.0291 18.021 20.3767 17.5922 20.3767H1.77645C1.34763 20.3767 1 20.0291 1 19.6003V19.6003Z" stroke="white" stroke-width="1.8" stroke-linejoin="round"/>
</svg>
