<svg width="16" height="20" viewBox="0 0 16 20" fill="none" xmlns="http://www.w3.org/2000/svg">
<path d="M13.5387 8.17237L13.5608 12.0311H2.63354V8.20359C2.63354 5.19219 5.07477 2.75098 8.08616 2.75098C11.0854 2.75098 13.5215 5.17321 13.5387 8.17237Z" stroke="#B4A6E6" stroke-width="1.5"/>
<path d="M8.81851 0.999955C8.81851 0.585741 8.48273 0.249955 8.06851 0.249955C7.6543 0.249955 7.31851 0.585741 7.31851 0.999955L8.81851 0.999955ZM8.81851 3.00122L8.81851 0.999955L7.31851 0.999955L7.31851 3.00122L8.81851 3.00122Z" fill="#B4A6E6"/>
<path d="M10.3602 16.4651C10.3602 17.6285 9.20259 18.4999 7.91843 18.4999C6.63427 18.4999 5.47662 17.6285 5.47662 16.4651" stroke="#B4A6E6" stroke-width="1.5" stroke-linejoin="round"/>
<path d="M1 15.3254C1 13.4639 2.50905 11.9548 4.37055 11.9548H11.7664C13.6279 11.9548 15.1369 13.4639 15.1369 15.3254V15.3254C15.1369 15.6744 14.854 15.9574 14.505 15.9574H1.63198C1.28295 15.9574 1 15.6744 1 15.3254V15.3254Z" stroke="#B4A6E6" stroke-width="1.5" stroke-linejoin="round"/>
</svg>
