<svg width="50" height="50" viewBox="0 0 50 50" fill="none" xmlns="http://www.w3.org/2000/svg">
<path d="M8.62513 31.4468H3.32647C1.48931 31.4468 0 32.9361 0 34.7732V46.1996C0 48.0368 1.48931 49.5261 3.32647 49.5261H8.62513C10.4623 49.5261 11.9516 48.0368 11.9516 46.1996V34.7732C11.9516 32.9361 10.4623 31.4468 8.62513 31.4468Z" fill="#F2A52B"/>
<path d="M27.4207 0H22.1221C20.2849 0 18.7956 1.48931 18.7956 3.32647V46.6735C18.7956 48.5107 20.2849 50 22.1221 50H27.4207C29.2579 50 30.7472 48.5107 30.7472 46.6735V3.32647C30.7472 1.48931 29.2579 0 27.4207 0Z" fill="#6347D9"/>
<path d="M46.2163 15.0454H40.9176C39.0804 15.0454 37.5911 16.5347 37.5911 18.3719V46.1989C37.5911 48.036 39.0804 49.5253 40.9176 49.5253H46.2163C48.0534 49.5253 49.5427 48.036 49.5427 46.1989V18.3719C49.5427 16.5347 48.0534 15.0454 46.2163 15.0454Z" fill="#01BFB3"/>
</svg>
