<svg width="23" height="23" viewBox="0 0 23 23" fill="none" xmlns="http://www.w3.org/2000/svg">
<path d="M22.1419 1.13475C21.4912 0.484006 20.44 0.484006 19.7893 1.13475L11.63 9.27733L3.47073 1.11806C2.81999 0.46732 1.7688 0.46732 1.11806 1.11806C0.46732 1.7688 0.46732 2.81999 1.11806 3.47073L9.27733 11.63L1.11806 19.7893C0.46732 20.44 0.46732 21.4912 1.11806 22.1419C1.7688 22.7927 2.81999 22.7927 3.47073 22.1419L11.63 13.9827L19.7893 22.1419C20.44 22.7927 21.4912 22.7927 22.1419 22.1419C22.7927 21.4912 22.7927 20.44 22.1419 19.7893L13.9827 11.63L22.1419 3.47073C22.776 2.83668 22.776 1.7688 22.1419 1.13475Z" fill="#6F6B7B"/>
</svg>
