<svg width="21" height="20" viewBox="0 0 21 20" fill="none" xmlns="http://www.w3.org/2000/svg">
<path d="M7.43304 1H1.76683C1.34332 1 1 1.34332 1 1.76683V7.43304C1 7.85655 1.34332 8.19987 1.76683 8.19987H7.43304C7.85655 8.19987 8.19987 7.85655 8.19987 7.43304V1.76683C8.19987 1.34332 7.85655 1 7.43304 1Z" stroke="#160F29" stroke-width="1.3" stroke-miterlimit="10" stroke-linecap="round"/>
<path d="M18.5956 1H12.9294C12.5059 1 12.1626 1.34332 12.1626 1.76683V7.43304C12.1626 7.85655 12.5059 8.19987 12.9294 8.19987H18.5956C19.0191 8.19987 19.3625 7.85655 19.3625 7.43304V1.76683C19.3625 1.34332 19.0191 1 18.5956 1Z" stroke="#160F29" stroke-width="1.3" stroke-miterlimit="10" stroke-linecap="round"/>
<path d="M7.43304 12.1167H1.76683C1.34332 12.1167 1 12.46 1 12.8835V18.5497C1 18.9732 1.34332 19.3166 1.76683 19.3166H7.43304C7.85655 19.3166 8.19987 18.9732 8.19987 18.5497V12.8835C8.19987 12.46 7.85655 12.1167 7.43304 12.1167Z" stroke="#160F29" stroke-width="1.3" stroke-miterlimit="10" stroke-linecap="round"/>
<path d="M18.5956 12.1167H12.9294C12.5059 12.1167 12.1626 12.46 12.1626 12.8835V18.5497C12.1626 18.9732 12.5059 19.3166 12.9294 19.3166H18.5956C19.0191 19.3166 19.3625 18.9732 19.3625 18.5497V12.8835C19.3625 12.46 19.0191 12.1167 18.5956 12.1167Z" stroke="#160F29" stroke-width="1.3" stroke-miterlimit="10" stroke-linecap="round"/>
</svg>
