<svg width="50" height="50" viewBox="0 0 50 50" fill="none" xmlns="http://www.w3.org/2000/svg">
<path d="M11.2442 0H0V11.3092H11.2442V0Z" fill="#01BFB3"/>
<path d="M24.0118 0H12.7676V11.3092H24.0118V0Z" fill="#01BFB3"/>
<path d="M36.7751 0H25.5309V11.3092H36.7751V0Z" fill="#01BFB3"/>
<path d="M49.5427 0H38.2985V11.3092H49.5427V0Z" fill="#01BFB3"/>
<path d="M11.2442 12.897H0V24.2062H11.2442V12.897Z" fill="#6347D9"/>
<path d="M24.0118 12.897H12.7676V24.2062H24.0118V12.897Z" fill="#6347D9"/>
<path d="M36.7751 12.897H25.5309V24.2062H36.7751V12.897Z" fill="#6347D9"/>
<path d="M49.5427 12.897H38.2985V24.2062H49.5427V12.897Z" fill="#6347D9"/>
<path d="M11.2442 25.7939H0V37.1032H11.2442V25.7939Z" fill="#F2A52B"/>
<path d="M24.0118 25.7939H12.7676V37.1032H24.0118V25.7939Z" fill="#F2A52B"/>
<path d="M36.7751 25.7939H25.5309V37.1032H36.7751V25.7939Z" fill="#F2A52B"/>
<path d="M49.5427 25.7939H38.2985V37.1032H49.5427V25.7939Z" fill="#F2A52B"/>
<path d="M11.2442 38.6909H0V50.0001H11.2442V38.6909Z" fill="#6347D9"/>
<path d="M24.0118 38.6909H12.7676V50.0001H24.0118V38.6909Z" fill="#6347D9"/>
<path d="M36.7751 38.6909H25.5309V50.0001H36.7751V38.6909Z" fill="#6347D9"/>
<path d="M49.5427 38.6909H38.2985V50.0001H49.5427V38.6909Z" fill="#6347D9"/>
</svg>
