<svg width="16" height="16" viewBox="0 0 16 16" fill="none" xmlns="http://www.w3.org/2000/svg">
<path d="M15.2 3.2C14.9878 3.2 14.7843 3.28429 14.6343 3.43431C14.4843 3.58434 14.4 3.78783 14.4 4V12C14.4 12.6365 14.1471 13.247 13.6971 13.6971C13.247 14.1471 12.6365 14.4 12 14.4H4C3.78783 14.4 3.58434 14.4843 3.43431 14.6343C3.28429 14.7843 3.2 14.9878 3.2 15.2C3.2 15.4122 3.28429 15.6157 3.43431 15.7657C3.58434 15.9157 3.78783 16 4 16H12C13.0609 16 14.0783 15.5786 14.8284 14.8284C15.5786 14.0783 16 13.0609 16 12V4C16 3.78783 15.9157 3.58434 15.7657 3.43431C15.6157 3.28429 15.4122 3.2 15.2 3.2ZM12.8 10.4V2.4C12.8 1.76348 12.5471 1.15303 12.0971 0.702944C11.647 0.252856 11.0365 0 10.4 0H2.4C1.76348 0 1.15303 0.252856 0.702944 0.702944C0.252856 1.15303 0 1.76348 0 2.4V10.4C0 11.0365 0.252856 11.647 0.702944 12.0971C1.15303 12.5471 1.76348 12.8 2.4 12.8H10.4C11.0365 12.8 11.647 12.5471 12.0971 12.0971C12.5471 11.647 12.8 11.0365 12.8 10.4ZM6.4 1.6H8V5.488L7.712 5.248C7.56825 5.12827 7.38708 5.0627 7.2 5.0627C7.01292 5.0627 6.83175 5.12827 6.688 5.248L6.4 5.488V1.6ZM1.6 10.4V2.4C1.6 2.18783 1.68429 1.98434 1.83431 1.83431C1.98434 1.68429 2.18783 1.6 2.4 1.6H4.8V7.2C4.79999 7.35293 4.84382 7.50266 4.92628 7.63145C5.00875 7.76024 5.12641 7.8627 5.26531 7.92668C5.40422 7.99066 5.55855 8.01348 5.71003 7.99245C5.86151 7.97142 6.00378 7.90741 6.12 7.808L7.2 6.904L8.28 7.808C8.42491 7.93192 8.60932 8.00001 8.8 8C8.91574 7.99918 9.03009 7.97468 9.136 7.928C9.27486 7.86373 9.39239 7.76099 9.47463 7.63196C9.55687 7.50293 9.60038 7.35301 9.6 7.2V1.6H10.4C10.6122 1.6 10.8157 1.68429 10.9657 1.83431C11.1157 1.98434 11.2 2.18783 11.2 2.4V10.4C11.2 10.6122 11.1157 10.8157 10.9657 10.9657C10.8157 11.1157 10.6122 11.2 10.4 11.2H2.4C2.18783 11.2 1.98434 11.1157 1.83431 10.9657C1.68429 10.8157 1.6 10.6122 1.6 10.4Z" fill="#6F6B7B"/>
</svg>
