<svg width="18" height="18" viewBox="0 0 18 18" fill="none" xmlns="http://www.w3.org/2000/svg">
<path d="M8.15659 2.68689H2.59035C2.16857 2.68689 1.76405 2.85444 1.4658 3.15269C1.16755 3.45094 1 3.85545 1 4.27724V15.4097C1 15.8315 1.16755 16.236 1.4658 16.5343C1.76405 16.8325 2.16857 17.0001 2.59035 17.0001H13.7228C14.1446 17.0001 14.5491 16.8325 14.8474 16.5343C15.1456 16.236 15.3132 15.8315 15.3132 15.4097V9.84348" stroke="white" stroke-width="1.3" stroke-linecap="round" stroke-linejoin="round"/>
<path d="M14.1203 1.49406C14.4367 1.17772 14.8657 1 15.3131 1C15.7605 1 16.1895 1.17772 16.5059 1.49406C16.8222 1.8104 16.9999 2.23945 16.9999 2.68682C16.9999 3.1342 16.8222 3.56325 16.5059 3.87959L8.9517 11.4338L5.771 12.2289L6.56617 9.04824L14.1203 1.49406Z" stroke="white" stroke-width="1.3" stroke-linecap="round" stroke-linejoin="round"/>
</svg>
