<svg width="16" height="17" viewBox="0 0 16 17" fill="none" xmlns="http://www.w3.org/2000/svg">
<circle cx="8" cy="9" r="7.25" stroke="#6F6B7B" stroke-width="1.5"/>
<path d="M5.427 4.732C5.59967 4.58733 5.78633 4.452 5.987 4.326C6.19233 4.2 6.41167 4.09033 6.645 3.997C6.87833 3.899 7.128 3.82433 7.394 3.773C7.66467 3.717 7.95633 3.689 8.269 3.689C8.70767 3.689 9.102 3.74733 9.452 3.864C9.80667 3.98067 10.1077 4.14867 10.355 4.368C10.6023 4.58267 10.7913 4.844 10.922 5.152C11.0573 5.45533 11.125 5.79367 11.125 6.167C11.125 6.52167 11.076 6.82967 10.978 7.091C10.88 7.34767 10.7563 7.57167 10.607 7.763C10.4577 7.95433 10.292 8.12 10.11 8.26C9.93267 8.4 9.76233 8.53067 9.599 8.652C9.44033 8.76867 9.30033 8.88533 9.179 9.002C9.06233 9.11867 8.98767 9.24933 8.955 9.394L8.759 10.374H7.275L7.121 9.247C7.08367 9.01833 7.107 8.82 7.191 8.652C7.275 8.47933 7.38933 8.32533 7.534 8.19C7.68333 8.05 7.849 7.91933 8.031 7.798C8.213 7.672 8.38333 7.539 8.542 7.399C8.70067 7.25433 8.83367 7.09567 8.941 6.923C9.053 6.74567 9.109 6.53567 9.109 6.293C9.109 6.013 9.01567 5.79133 8.829 5.628C8.647 5.46 8.395 5.376 8.073 5.376C7.82567 5.376 7.618 5.40167 7.45 5.453C7.28667 5.50433 7.14433 5.56267 7.023 5.628C6.90633 5.68867 6.80367 5.74467 6.715 5.796C6.62633 5.84733 6.53767 5.873 6.449 5.873C6.24833 5.873 6.099 5.78667 6.001 5.614L5.427 4.732ZM6.715 12.901C6.715 12.733 6.74533 12.5767 6.806 12.432C6.87133 12.2873 6.95767 12.1613 7.065 12.054C7.177 11.9467 7.30767 11.8627 7.457 11.802C7.60633 11.7367 7.76967 11.704 7.947 11.704C8.11967 11.704 8.28067 11.7367 8.43 11.802C8.57933 11.8627 8.71 11.9467 8.822 12.054C8.934 12.1613 9.02033 12.2873 9.081 12.432C9.14633 12.5767 9.179 12.733 9.179 12.901C9.179 13.069 9.14633 13.2277 9.081 13.377C9.02033 13.5217 8.934 13.6477 8.822 13.755C8.71 13.8623 8.57933 13.9463 8.43 14.007C8.28067 14.0677 8.11967 14.098 7.947 14.098C7.76967 14.098 7.60633 14.0677 7.457 14.007C7.30767 13.9463 7.177 13.8623 7.065 13.755C6.95767 13.6477 6.87133 13.5217 6.806 13.377C6.74533 13.2277 6.715 13.069 6.715 12.901Z" fill="#6F6B7B"/>
</svg>
