<svg width="23" height="22" viewBox="0 0 23 22" fill="none" xmlns="http://www.w3.org/2000/svg">
<path d="M21.2158 11.0718L13.4886 11.0718" stroke="#B4A6E6" stroke-width="1.8" stroke-miterlimit="10" stroke-linecap="round"/>
<path d="M17.8792 7.73633L21.2159 11.0731L17.8792 14.4098" stroke="#B4A6E6" stroke-width="1.8" stroke-miterlimit="10" stroke-linecap="round"/>
<path d="M12.364 14.75H13.279C13.3715 14.75 13.4465 14.3001 13.4465 13.745V8.25495C13.4465 7.69993 13.3715 7.25 13.279 7.25H12.364C12.2715 7.25 12.1965 7.69993 12.1965 8.25495V13.745C12.1965 14.3001 12.2715 14.75 12.364 14.75Z" stroke="#B4A6E6" stroke-width="1.4" stroke-miterlimit="10" stroke-linecap="round"/>
<path d="M3.05166 8.96832C1.92945 8.96832 1.01971 9.87805 1.01971 11.0003C1.01971 12.1225 1.92945 13.0322 3.05166 13.0322C4.17388 13.0322 5.08362 12.1225 5.08362 11.0003C5.08362 9.87805 4.17388 8.96832 3.05166 8.96832Z" stroke="#B4A6E6" stroke-width="1.5" stroke-miterlimit="10" stroke-linecap="round"/>
<path d="M3.05166 0.999811C1.92945 0.999811 1.01971 1.90955 1.01971 3.03177C1.01971 4.15398 1.92945 5.06372 3.05166 5.06372C4.17388 5.06372 5.08362 4.15398 5.08362 3.03177C5.08362 1.90955 4.17388 0.999811 3.05166 0.999811Z" stroke="#B4A6E6" stroke-width="1.5" stroke-miterlimit="10" stroke-linecap="round"/>
<path d="M3.05166 16.9361C1.92945 16.9361 1.01971 17.8458 1.01971 18.968C1.01971 20.0903 1.92945 21 3.05166 21C4.17388 21 5.08362 20.0903 5.08362 18.968C5.08362 17.8458 4.17388 16.9361 3.05166 16.9361Z" stroke="#B4A6E6" stroke-width="1.5" stroke-miterlimit="10" stroke-linecap="round"/>
<path d="M12.269 11H5.08295" stroke="#B4A6E6" stroke-width="1.5" stroke-miterlimit="10" stroke-linecap="round"/>
<path d="M4.8833 2.9624C6.02043 2.9624 8.2947 3.54999 8.2947 5.90032C8.2947 8.25065 10.9378 8.66018 12.2593 8.57115" stroke="#B4A6E6" stroke-width="1.5"/>
<path d="M5.05884 18.6543C6.19597 18.6543 8.47023 18.0851 8.47023 15.8082C8.47023 13.5313 11.1133 13.1346 12.4348 13.2208" stroke="#B4A6E6" stroke-width="1.5"/>
</svg>
