<svg width="23" height="22" viewBox="0 0 23 22" fill="none" xmlns="http://www.w3.org/2000/svg">
<path d="M21.1963 11.0718L13.4691 11.0718" stroke="#6F6B7B" stroke-width="1.8" stroke-miterlimit="10" stroke-linecap="round"/>
<path d="M17.8596 7.73633L21.1964 11.0731L17.8596 14.4098" stroke="#6F6B7B" stroke-width="1.8" stroke-miterlimit="10" stroke-linecap="round"/>
<path d="M12.3445 14.75H13.2595C13.352 14.75 13.427 14.3001 13.427 13.745V8.25495C13.427 7.69993 13.352 7.25 13.2595 7.25H12.3445C12.252 7.25 12.177 7.69993 12.177 8.25495V13.745C12.177 14.3001 12.252 14.75 12.3445 14.75Z" stroke="#6F6B7B" stroke-width="1.4" stroke-miterlimit="10" stroke-linecap="round"/>
<path d="M3.03213 8.96832C1.90991 8.96832 1.00018 9.87805 1.00018 11.0003C1.00018 12.1225 1.90991 13.0322 3.03213 13.0322C4.15435 13.0322 5.06409 12.1225 5.06409 11.0003C5.06409 9.87805 4.15435 8.96832 3.03213 8.96832Z" stroke="#6F6B7B" stroke-width="1.5" stroke-miterlimit="10" stroke-linecap="round"/>
<path d="M3.03213 0.999811C1.90991 0.999811 1.00018 1.90955 1.00018 3.03177C1.00018 4.15398 1.90991 5.06372 3.03213 5.06372C4.15435 5.06372 5.06409 4.15398 5.06409 3.03177C5.06409 1.90955 4.15435 0.999811 3.03213 0.999811Z" stroke="#6F6B7B" stroke-width="1.5" stroke-miterlimit="10" stroke-linecap="round"/>
<path d="M3.03213 16.9361C1.90991 16.9361 1.00018 17.8458 1.00018 18.968C1.00018 20.0903 1.90991 21 3.03213 21C4.15435 21 5.06409 20.0903 5.06409 18.968C5.06409 17.8458 4.15435 16.9361 3.03213 16.9361Z" stroke="#6F6B7B" stroke-width="1.5" stroke-miterlimit="10" stroke-linecap="round"/>
<path d="M12.2495 11H5.06341" stroke="#6F6B7B" stroke-width="1.5" stroke-miterlimit="10" stroke-linecap="round"/>
<path d="M4.86377 2.9624C6.0009 2.9624 8.27517 3.54999 8.27517 5.90032C8.27517 8.25065 10.9182 8.66018 12.2398 8.57115" stroke="#6F6B7B" stroke-width="1.5"/>
<path d="M5.03931 18.6543C6.17644 18.6543 8.4507 18.0851 8.4507 15.8082C8.4507 13.5313 11.0938 13.1346 12.4153 13.2208" stroke="#6F6B7B" stroke-width="1.5"/>
</svg>
