<svg width="54" height="54" viewBox="0 0 54 54" fill="none" xmlns="http://www.w3.org/2000/svg">
<path d="M2 2V51C2 51.5523 2.44772 52 3 52H51.5427" stroke="#6347D9" stroke-width="4" stroke-miterlimit="10" stroke-linecap="round"/>
<path d="M9.76459 43.8972L17.444 34.8511C17.5107 34.7725 17.5892 34.7047 17.6766 34.6501L29.4736 27.2826C29.758 27.105 30.1126 27.0818 30.4178 27.2208L42.3679 32.6643C42.7439 32.8355 43.1865 32.758 43.4818 32.4691L50.8284 25.2817" stroke="#F2A52B" stroke-width="4" stroke-miterlimit="10" stroke-linecap="round"/>
<path d="M8.26868 27.123L17.1845 16.5038C17.4079 16.2377 17.7536 16.1066 18.0974 16.1577L29.5181 17.8557C29.7809 17.8948 30.0484 17.8277 30.2616 17.6692L42.0525 8.90779C42.2249 8.77964 42.4341 8.71045 42.6489 8.71045H50.8278" stroke="#01BFB3" stroke-width="4" stroke-miterlimit="10" stroke-linecap="round"/>
</svg>
