<svg width="16" height="16" viewBox="0 0 16 16" fill="none" xmlns="http://www.w3.org/2000/svg">
<path d="M14.7278 0.000111863H1.17598C1.02365 -0.0020038 0.872388 0.0259095 0.730842 0.0822577C0.589296 0.138606 0.460236 0.222285 0.351033 0.328517C0.24183 0.434748 0.154623 0.561451 0.0943922 0.70139C0.0341614 0.841328 0.00208669 0.99176 0 1.1441V14.8559C0.00208669 15.0082 0.0341614 15.1587 0.0943922 15.2986C0.154623 15.4385 0.24183 15.5653 0.351033 15.6715C0.460236 15.7777 0.589296 15.8614 0.730842 15.9177C0.872388 15.9741 1.02365 16.002 1.17598 15.9999H14.7278C14.8801 16.002 15.0314 15.9741 15.1729 15.9177C15.3145 15.8614 15.4435 15.7777 15.5527 15.6715C15.6619 15.5653 15.7492 15.4385 15.8094 15.2986C15.8696 15.1587 15.9017 15.0082 15.9038 14.8559V1.1441C15.9017 0.99176 15.8696 0.841328 15.8094 0.70139C15.7492 0.561451 15.6619 0.434748 15.5527 0.328517C15.4435 0.222285 15.3145 0.138606 15.1729 0.0822577C15.0314 0.0259095 14.8801 -0.0020038 14.7278 0.000111863ZM4.82393 13.3919H2.42397V6.19202H4.82393V13.3919ZM3.62395 5.18404C3.46006 5.18404 3.29778 5.15176 3.14637 5.08904C2.99495 5.02633 2.85738 4.9344 2.74149 4.81851C2.62561 4.70263 2.53368 4.56505 2.47096 4.41364C2.40825 4.26223 2.37597 4.09994 2.37597 3.93606C2.37597 3.77217 2.40825 3.60989 2.47096 3.45847C2.53368 3.30706 2.62561 3.16949 2.74149 3.0536C2.85738 2.93771 2.99495 2.84579 3.14637 2.78307C3.29778 2.72035 3.46006 2.68807 3.62395 2.68807C3.7997 2.66814 3.97768 2.68556 4.14624 2.73918C4.3148 2.7928 4.47013 2.88142 4.60206 2.99924C4.73399 3.11706 4.83955 3.26141 4.91183 3.42285C4.9841 3.58429 5.02146 3.75918 5.02146 3.93606C5.02146 4.11294 4.9841 4.28782 4.91183 4.44926C4.83955 4.6107 4.73399 4.75506 4.60206 4.87287C4.47013 4.99069 4.3148 5.07931 4.14624 5.13293C3.97768 5.18656 3.7997 5.20397 3.62395 5.18404ZM13.4798 13.3919H11.0798V9.52798C11.0798 8.55999 10.7358 7.928 9.86386 7.928C9.59399 7.92998 9.33122 8.01462 9.11094 8.17054C8.89066 8.32645 8.72346 8.54613 8.63188 8.79999C8.56928 8.98802 8.54215 9.18604 8.55188 9.38398V13.3839H6.15191C6.15191 13.3839 6.15191 6.84002 6.15191 6.18402H8.55188V7.20001C8.7699 6.8217 9.087 6.51004 9.46902 6.29859C9.85104 6.08713 10.2835 5.98391 10.7198 6.00003C12.3198 6.00003 13.4798 7.03201 13.4798 9.24798V13.3919Z" fill="#B4A6E6"/>
</svg>
