<svg width="18" height="18" viewBox="0 0 18 18" fill="none" xmlns="http://www.w3.org/2000/svg">
<path d="M4.69561 13.3044H1.66983C1.30027 13.3044 1 13.0041 1 12.6346V1.66983C1 1.30027 1.30027 1 1.66983 1H12.6346C13.0041 1 13.3044 1.30027 13.3044 1.66983V4.69231" stroke="#B4A6E6" stroke-width="1.5" stroke-miterlimit="10" stroke-linecap="round"/>
<path d="M16.3303 4.69556H5.36551C4.99557 4.69556 4.69568 4.99545 4.69568 5.36539V16.3301C4.69568 16.7001 4.99557 17 5.36551 17H16.3303C16.7002 17 17.0001 16.7001 17.0001 16.3301V5.36539C17.0001 4.99545 16.7002 4.69556 16.3303 4.69556Z" stroke="#B4A6E6" stroke-width="1.5" stroke-miterlimit="10" stroke-linecap="round"/>
<path d="M11.1333 13.3506H14.3472" stroke="#B4A6E6" stroke-width="1.5" stroke-miterlimit="10" stroke-linecap="round"/>
<path d="M7.29236 8.31519L10.0575 10.8361L7.29236 13.3571" stroke="#B4A6E6" stroke-width="1.5" stroke-miterlimit="10" stroke-linecap="round"/>
</svg>
