<svg width="21" height="21" viewBox="0 0 21 21" fill="none" xmlns="http://www.w3.org/2000/svg">
<path d="M5.38854 15.6115H1.79542C1.35657 15.6115 1 15.2549 1 14.8161V1.79542C1 1.35657 1.35657 1 1.79542 1H14.8161C15.2549 1 15.6115 1.35657 15.6115 1.79542V5.38462" stroke="#6F6B7B" stroke-width="1.8" stroke-miterlimit="10" stroke-linecap="round"/>
<path d="M19.2046 5.38843H6.18397C5.74467 5.38843 5.38855 5.74455 5.38855 6.18385V19.2045C5.38855 19.6438 5.74467 19.9999 6.18397 19.9999H19.2046C19.6439 19.9999 20 19.6438 20 19.2045V6.18385C20 5.74455 19.6439 5.38843 19.2046 5.38843Z" stroke="#6F6B7B" stroke-width="1.8" stroke-miterlimit="10" stroke-linecap="round"/>
<path d="M13.0332 15.6665H16.8497" stroke="#6F6B7B" stroke-width="1.8" stroke-miterlimit="10" stroke-linecap="round"/>
<path d="M8.47229 9.68701L11.7559 12.6806L8.47229 15.6742" stroke="#6F6B7B" stroke-width="1.8" stroke-miterlimit="10" stroke-linecap="round"/>
</svg>
