<svg width="50" height="50" viewBox="0 0 50 50" fill="none" xmlns="http://www.w3.org/2000/svg">
<path d="M12.2647 0H0.751111C0.336284 0 0 0.33855 0 0.756172V11.2079C0 11.6255 0.336284 11.9641 0.751111 11.9641H12.2647C12.6795 11.9641 13.0158 11.6255 13.0158 11.2079V0.756172C13.0158 0.33855 12.6795 0 12.2647 0Z" fill="#6347D9"/>
<path d="M12.2647 19.0186H0.751111C0.336284 19.0186 0 19.3571 0 19.7747V30.2265C0 30.6441 0.336284 30.9826 0.751111 30.9826H12.2647C12.6795 30.9826 13.0158 30.6441 13.0158 30.2265V19.7747C13.0158 19.3571 12.6795 19.0186 12.2647 19.0186Z" fill="#01BFB3"/>
<path d="M12.2647 38.0361H0.751111C0.336284 38.0361 0 38.3747 0 38.7923V49.244C0 49.6617 0.336284 50.0002 0.751111 50.0002H12.2647C12.6795 50.0002 13.0158 49.6617 13.0158 49.244V38.7923C13.0158 38.3747 12.6795 38.0361 12.2647 38.0361Z" fill="#F2A52B"/>
<path d="M48.7916 0H19.025C18.6101 0 18.2739 0.33855 18.2739 0.756172V11.2079C18.2739 11.6255 18.6101 11.9641 19.025 11.9641H48.7916C49.2064 11.9641 49.5427 11.6255 49.5427 11.2079V0.756172C49.5427 0.33855 49.2064 0 48.7916 0Z" fill="#6347D9"/>
<path d="M48.7916 19.0186H19.025C18.6101 19.0186 18.2739 19.3571 18.2739 19.7747V30.2265C18.2739 30.6441 18.6101 30.9826 19.025 30.9826H48.7916C49.2064 30.9826 49.5427 30.6441 49.5427 30.2265V19.7747C49.5427 19.3571 49.2064 19.0186 48.7916 19.0186Z" fill="#01BFB3"/>
<path d="M48.7916 38.0361H19.025C18.6101 38.0361 18.2739 38.3747 18.2739 38.7923V49.244C18.2739 49.6617 18.6101 50.0002 19.025 50.0002H48.7916C49.2064 50.0002 49.5427 49.6617 49.5427 49.244V38.7923C49.5427 38.3747 49.2064 38.0361 48.7916 38.0361Z" fill="#F2A52B"/>
</svg>
