<svg width="60" height="60" viewBox="0 0 60 60" fill="none" xmlns="http://www.w3.org/2000/svg">
<circle cx="30" cy="30" r="29.5" fill="#A479EA" stroke="#A90D0D"/>
<g filter="url(#filter0_d_38_2)">
<path d="M19.32 34.6H20.8C20.9867 35.8 21.3333 36.88 21.84 37.84C22.3733 38.8 23.0267 39.6133 23.8 40.28C24.6 40.9467 25.5067 41.4667 26.52 41.84C27.56 42.1867 28.68 42.36 29.88 42.36C31.8533 42.36 33.4133 41.8933 34.56 40.96C35.7067 40.0267 36.28 38.76 36.28 37.16C36.28 36.4933 36.16 35.88 35.92 35.32C35.7067 34.76 35.3333 34.2267 34.8 33.72C34.2667 33.1867 33.5467 32.6667 32.64 32.16C31.76 31.6533 30.64 31.1067 29.28 30.52C27.6267 29.8 26.24 29.1067 25.12 28.44C24 27.7733 23.1067 27.08 22.44 26.36C21.7733 25.64 21.2933 24.88 21 24.08C20.7333 23.2533 20.6 22.32 20.6 21.28C20.6 20.0533 20.8133 18.92 21.24 17.88C21.6933 16.84 22.32 15.9467 23.12 15.2C23.92 14.4267 24.8667 13.84 25.96 13.44C27.0533 13.0133 28.2533 12.8 29.56 12.8C30.7333 12.8 31.8267 12.9867 32.84 13.36C33.8533 13.7333 34.88 14.3333 35.92 15.16L36.96 13.36H37.88L38.32 21.32H36.84C36.2 19.1333 35.2667 17.5067 34.04 16.44C32.84 15.3733 31.3867 14.84 29.68 14.84C28.0533 14.84 26.76 15.24 25.8 16.04C24.84 16.84 24.36 17.92 24.36 19.28C24.36 19.92 24.4667 20.5067 24.68 21.04C24.8933 21.5467 25.24 22.04 25.72 22.52C26.2 22.9733 26.8267 23.44 27.6 23.92C28.3733 24.3733 29.3333 24.8533 30.48 25.36C32.4533 26.24 34.0933 27.0667 35.4 27.84C36.7067 28.5867 37.7467 29.3467 38.52 30.12C39.2933 30.8667 39.84 31.6667 40.16 32.52C40.48 33.3467 40.64 34.28 40.64 35.32C40.64 36.6533 40.3733 37.88 39.84 39C39.3067 40.12 38.56 41.08 37.6 41.88C36.64 42.68 35.4933 43.3067 34.16 43.76C32.8267 44.1867 31.36 44.4 29.76 44.4C28.24 44.4 26.8667 44.1867 25.64 43.76C24.44 43.3333 23.2133 42.6133 21.96 41.6L20.84 43.56H19.92L19.32 34.6Z" fill="#F5E3E3"/>
<path d="M19.32 34.6V33.6H18.2508L18.3222 34.6668L19.32 34.6ZM20.8 34.6L21.7881 34.4463L21.6565 33.6H20.8V34.6ZM21.84 37.84L20.9556 38.3068L20.9606 38.3163L20.9658 38.3256L21.84 37.84ZM23.8 40.28L23.1471 41.0374L23.1534 41.0429L23.1598 41.0482L23.8 40.28ZM26.52 41.84L26.1743 42.7783L26.189 42.7837L26.2038 42.7887L26.52 41.84ZM34.56 40.96L33.9287 40.1844H33.9287L34.56 40.96ZM35.92 35.32L34.9855 35.676L34.9928 35.6951L35.0009 35.7139L35.92 35.32ZM34.8 33.72L34.0929 34.4271L34.102 34.4362L34.1113 34.445L34.8 33.72ZM32.64 32.16L32.141 33.0267L32.1522 33.0329L32.64 32.16ZM29.28 30.52L28.8807 31.4368L28.8839 31.4382L29.28 30.52ZM22.44 26.36L21.7062 27.0394H21.7062L22.44 26.36ZM21 24.08L20.0483 24.387L20.0543 24.4058L20.0611 24.4243L21 24.08ZM21.24 17.88L20.3233 17.4804L20.319 17.4904L20.3148 17.5004L21.24 17.88ZM23.12 15.2L23.8023 15.9311L23.8087 15.9251L23.815 15.919L23.12 15.2ZM25.96 13.44L26.3036 14.3791L26.3136 14.3755L26.3235 14.3716L25.96 13.44ZM32.84 13.36L33.1857 12.4217L32.84 13.36ZM35.92 15.16L35.2978 15.9428L36.2057 16.6645L36.7859 15.6603L35.92 15.16ZM36.96 13.36V12.36H36.3829L36.0941 12.8597L36.96 13.36ZM37.88 13.36L38.8785 13.3048L38.8263 12.36H37.88V13.36ZM38.32 21.32V22.32H39.3768L39.3185 21.2648L38.32 21.32ZM36.84 21.32L35.8803 21.6009L36.0907 22.32H36.84V21.32ZM34.04 16.44L33.3756 17.1875L33.3838 17.1946L34.04 16.44ZM25.8 16.04L25.1598 15.2718H25.1598L25.8 16.04ZM24.68 21.04L23.7515 21.4114L23.7549 21.4198L23.7584 21.4281L24.68 21.04ZM25.72 22.52L25.0129 23.2271L25.023 23.2372L25.0334 23.247L25.72 22.52ZM27.6 23.92L27.0726 24.7696L27.0834 24.7763L27.0943 24.7827L27.6 23.92ZM30.48 25.36L30.8873 24.4467L30.8842 24.4453L30.48 25.36ZM35.4 27.84L34.8907 28.7006L34.8972 28.7045L34.9039 28.7082L35.4 27.84ZM38.52 30.12L37.8129 30.8271L37.8191 30.8333L37.8254 30.8394L38.52 30.12ZM40.16 32.52L39.2236 32.8711L39.2274 32.881L40.16 32.52ZM39.84 39L40.7429 39.4299L40.7429 39.4299L39.84 39ZM37.6 41.88L38.2402 42.6482L37.6 41.88ZM34.16 43.76L34.4648 44.7124L34.4734 44.7097L34.4819 44.7068L34.16 43.76ZM25.64 43.76L25.305 44.7022L25.3115 44.7045L25.64 43.76ZM21.96 41.6L22.5887 40.8224L21.6748 40.0835L21.0918 41.1039L21.96 41.6ZM20.84 43.56V44.56H21.4203L21.7082 44.0561L20.84 43.56ZM19.92 43.56L18.9222 43.6268L18.9847 44.56H19.92V43.56ZM19.32 35.6H20.8V33.6H19.32V35.6ZM19.8119 34.7537C20.0136 36.0502 20.3915 37.238 20.9556 38.3068L22.7244 37.3732C22.2751 36.522 21.9598 35.5498 21.7881 34.4463L19.8119 34.7537ZM20.9658 38.3256C21.552 39.3807 22.278 40.2883 23.1471 41.0374L24.4529 39.5226C23.7753 38.9384 23.1947 38.2193 22.7142 37.3544L20.9658 38.3256ZM23.1598 41.0482C24.0508 41.7907 25.0578 42.367 26.1743 42.7783L26.8657 40.9017C25.9555 40.5663 25.1492 40.1026 24.4402 39.5118L23.1598 41.0482ZM26.2038 42.7887C27.3549 43.1724 28.5826 43.36 29.88 43.36V41.36C28.7774 41.36 27.7651 41.2009 26.8362 40.8913L26.2038 42.7887ZM29.88 43.36C32.0061 43.36 33.8144 42.8563 35.1913 41.7356L33.9287 40.1844C33.0123 40.9304 31.7006 41.36 29.88 41.36V43.36ZM35.1913 41.7356C36.5923 40.5952 37.28 39.0326 37.28 37.16H35.28C35.28 38.4874 34.821 39.4581 33.9287 40.1844L35.1913 41.7356ZM37.28 37.16C37.28 36.3708 37.1373 35.6219 36.8391 34.9261L35.0009 35.7139C35.1827 36.1381 35.28 36.6159 35.28 37.16H37.28ZM36.8545 34.964C36.5772 34.236 36.1064 33.5818 35.4888 32.995L34.1113 34.445C34.5603 34.8716 34.8362 35.284 34.9855 35.676L36.8545 34.964ZM35.5071 33.0129C34.8894 32.3952 34.087 31.823 33.1278 31.2871L32.1522 33.0329C33.0064 33.5103 33.644 33.9782 34.0929 34.4271L35.5071 33.0129ZM33.139 31.2934C32.2144 30.7611 31.0569 30.1974 29.6761 29.6018L28.8839 31.4382C30.2231 32.0159 31.3056 32.5456 32.141 33.0266L33.139 31.2934ZM29.6793 29.6032C28.0511 28.8941 26.7046 28.2195 25.6315 27.5807L24.6085 29.2993C25.7754 29.9939 27.2023 30.7059 28.8807 31.4368L29.6793 29.6032ZM25.6315 27.5807C24.5686 26.948 23.758 26.3116 23.1738 25.6806L21.7062 27.0394C22.4553 27.8484 23.4314 28.5986 24.6085 29.2993L25.6315 27.5807ZM23.1738 25.6806C22.5835 25.0431 22.1803 24.3942 21.9389 23.7357L20.0611 24.4243C20.4064 25.3658 20.9632 26.2369 21.7062 27.0394L23.1738 25.6806ZM21.9517 23.773C21.7226 23.0628 21.6 22.2357 21.6 21.28H19.6C19.6 22.4043 19.744 23.4438 20.0483 24.387L21.9517 23.773ZM21.6 21.28C21.6 20.1716 21.7923 19.1685 22.1652 18.2596L20.3148 17.5004C19.8344 18.6715 19.6 19.9351 19.6 21.28H21.6ZM22.1567 18.2796C22.5574 17.3602 23.106 16.581 23.8023 15.9311L22.4377 14.4689C21.534 15.3124 20.8292 16.3198 20.3233 17.4804L22.1567 18.2796ZM23.815 15.919C24.5099 15.2473 25.3353 14.7334 26.3036 14.3791L25.6164 12.5009C24.3981 12.9466 23.3301 13.6061 22.425 14.481L23.815 15.919ZM26.3235 14.3716C27.2886 13.995 28.3637 13.8 29.56 13.8V11.8C28.143 11.8 26.8181 12.0317 25.5965 12.5084L26.3235 14.3716ZM29.56 13.8C30.6256 13.8 31.6009 13.9692 32.4943 14.2983L33.1857 12.4217C32.0525 12.0041 30.8411 11.8 29.56 11.8V13.8ZM32.4943 14.2983C33.3878 14.6275 34.3226 15.1677 35.2978 15.9428L36.5422 14.3772C35.4374 13.4989 34.3188 12.8391 33.1857 12.4217L32.4943 14.2983ZM36.7859 15.6603L37.8259 13.8603L36.0941 12.8597L35.0541 14.6597L36.7859 15.6603ZM36.96 14.36H37.88V12.36H36.96V14.36ZM36.8815 13.4152L37.3215 21.3752L39.3185 21.2648L38.8785 13.3048L36.8815 13.4152ZM38.32 20.32H36.84V22.32H38.32V20.32ZM37.7997 21.0391C37.1267 18.7395 36.1143 16.9186 34.6962 15.6854L33.3838 17.1946C34.419 18.0948 35.2733 19.5272 35.8803 21.6009L37.7997 21.0391ZM34.7044 15.6926C33.3091 14.4524 31.6148 13.84 29.68 13.84V15.84C31.1586 15.84 32.3709 16.2943 33.3756 17.1874L34.7044 15.6926ZM29.68 13.84C27.891 13.84 26.3478 14.2818 25.1598 15.2718L26.4402 16.8082C27.1722 16.1982 28.2156 15.84 29.68 15.84V13.84ZM25.1598 15.2718C23.9499 16.28 23.36 17.653 23.36 19.28H25.36C25.36 18.187 25.7301 17.4 26.4402 16.8082L25.1598 15.2718ZM23.36 19.28C23.36 20.0327 23.4858 20.7472 23.7515 21.4114L25.6085 20.6686C25.4475 20.2662 25.36 19.8073 25.36 19.28H23.36ZM23.7584 21.4281C24.0322 22.0784 24.4622 22.6764 25.0129 23.2271L26.4271 21.8129C26.0178 21.4036 25.7545 21.015 25.6016 20.6519L23.7584 21.4281ZM25.0334 23.247C25.5766 23.7601 26.262 24.2665 27.0726 24.7696L28.1274 23.0704C27.3913 22.6135 26.8234 22.1866 26.4066 21.793L25.0334 23.247ZM27.0943 24.7827C27.9105 25.2612 28.9069 25.7582 30.0758 26.2747L30.8842 24.4453C29.7598 23.9485 28.8362 23.4855 28.1057 23.0573L27.0943 24.7827ZM30.0727 26.2733C32.0244 27.1436 33.6275 27.953 34.8907 28.7006L35.9093 26.9794C34.5591 26.1803 32.8823 25.3364 30.8873 24.4467L30.0727 26.2733ZM34.9039 28.7082C36.1601 29.4261 37.121 30.1352 37.8129 30.8271L39.2271 29.4129C38.3724 28.5581 37.2533 27.7473 35.8961 26.9718L34.9039 28.7082ZM37.8254 30.8394C38.5108 31.5012 38.9644 32.1798 39.2237 32.8711L41.0963 32.1689C40.7156 31.1535 40.0758 30.2321 39.2146 29.4006L37.8254 30.8394ZM39.2274 32.881C39.4959 33.5744 39.64 34.3825 39.64 35.32H41.64C41.64 34.1775 41.4641 33.1189 41.0926 32.159L39.2274 32.881ZM39.64 35.32C39.64 36.5159 39.4018 37.5942 38.9371 38.5701L40.7429 39.4299C41.3449 38.1658 41.64 36.7907 41.64 35.32H39.64ZM38.9371 38.5701C38.4664 39.5587 37.8097 40.4035 36.9598 41.1118L38.2402 42.6482C39.3103 41.7565 40.147 40.6813 40.7429 39.4299L38.9371 38.5701ZM36.9598 41.1118C36.1053 41.8239 35.0699 42.3944 33.8381 42.8132L34.4819 44.7068C35.9167 44.2189 37.1747 43.5361 38.2402 42.6482L36.9598 41.1118ZM33.8552 42.8076C32.6333 43.1986 31.2711 43.4 29.76 43.4V45.4C31.4489 45.4 33.02 45.1748 34.4648 44.7124L33.8552 42.8076ZM29.76 43.4C28.3332 43.4 27.0733 43.1998 25.9685 42.8155L25.3115 44.7045C26.6601 45.1736 28.1468 45.4 29.76 45.4V43.4ZM25.975 42.8178C24.9055 42.4375 23.7764 41.7826 22.5887 40.8224L21.3313 42.3776C22.6502 43.444 23.9745 44.2291 25.305 44.7022L25.975 42.8178ZM21.0918 41.1039L19.9718 43.0639L21.7082 44.0561L22.8282 42.0961L21.0918 41.1039ZM20.84 42.56H19.92V44.56H20.84V42.56ZM20.9178 43.4932L20.3178 34.5332L18.3222 34.6668L18.9222 43.6268L20.9178 43.4932Z" fill="black"/>
</g>
<defs>
<filter id="filter0_d_38_2" x="15.32" y="12.8" width="29.32" height="39.6" filterUnits="userSpaceOnUse" color-interpolation-filters="sRGB">
<feFlood flood-opacity="0" result="BackgroundImageFix"/>
<feColorMatrix in="SourceAlpha" type="matrix" values="0 0 0 0 0 0 0 0 0 0 0 0 0 0 0 0 0 0 127 0" result="hardAlpha"/>
<feOffset dy="4"/>
<feGaussianBlur stdDeviation="2"/>
<feComposite in2="hardAlpha" operator="out"/>
<feColorMatrix type="matrix" values="0 0 0 0 0 0 0 0 0 0 0 0 0 0 0 0 0 0 0.25 0"/>
<feBlend mode="normal" in2="BackgroundImageFix" result="effect1_dropShadow_38_2"/>
<feBlend mode="normal" in="SourceGraphic" in2="effect1_dropShadow_38_2" result="shape"/>
</filter>
</defs>
</svg>
