<svg width="18" height="24" viewBox="0 0 18 24" fill="none" xmlns="http://www.w3.org/2000/svg">
<path fill-rule="evenodd" clip-rule="evenodd" d="M8.30037 0.0359338C6.70437 0.202408 5.25166 0.903385 4.12211 2.05203C3.17751 3.0126 2.50666 4.34372 2.30602 5.65559C2.24176 6.07571 2.23217 6.09501 2.05917 6.15215C1.82399 6.22983 1.69928 6.37363 1.66428 6.60735C1.62598 6.86374 1.80672 7.15257 2.03394 7.19803L2.20211 7.23171V9.1831V11.1344L2.05278 11.1719C1.82719 11.2286 1.3013 11.8025 1.07144 12.2429C0.340095 13.6439 0.0174877 15.657 0.00128165 18.9203C-0.00505498 20.1884 0.0100295 20.509 0.0936955 20.8847C0.352376 22.0466 0.972357 22.6118 1.48518 22.1532L1.66726 21.9903L1.85253 22.1532C2.10555 22.3755 2.37601 22.3751 2.59897 22.1519C2.81407 21.9366 2.82193 21.6464 2.61983 21.3811L2.47677 21.1934H2.7363C3.18895 21.1934 3.44852 20.7995 3.26358 20.3932C3.17442 20.1974 3.0118 20.1196 2.57732 20.065C1.843 19.9727 1.34246 19.6348 1.17603 19.119C1.10038 18.8845 1.09528 18.6835 1.1398 17.6767C1.23412 15.5413 1.43902 14.2734 1.8665 13.1803C2.20536 12.3137 2.20138 12.2973 2.20867 14.5737C2.21664 17.063 2.23682 17.7047 2.3197 18.1059C2.62773 19.5971 3.87285 20.8176 5.40895 21.1342L5.72786 21.1999L5.87927 21.6597C6.18376 22.5846 6.24079 22.7066 6.40941 22.7939C6.49801 22.8397 6.66641 22.8775 6.78355 22.8778L6.99665 22.8783L6.70847 23.0437C6.48343 23.1729 6.38822 23.2736 6.27388 23.5033C6.0143 24.0247 5.96512 23.9998 7.25521 23.9998H8.38302L8.34596 23.7893C8.2924 23.4847 8.04415 23.1578 7.75368 23.0094L7.50133 22.8804L7.71442 22.8788C7.83157 22.878 7.99996 22.8397 8.08857 22.7939C8.2573 22.7066 8.31405 22.5849 8.61978 21.6565C8.76115 21.2273 8.78341 21.1934 8.92494 21.1934C9.07097 21.1934 9.08802 21.2251 9.3172 21.9224C9.59304 22.7616 9.68747 22.8773 10.0972 22.8773H10.3509L10.1037 23.0079C9.81235 23.1618 9.559 23.4965 9.51134 23.7902L9.47735 23.9998H10.6107H11.744L11.7048 23.8174C11.6264 23.453 11.3946 23.1602 11.0341 22.9704L10.8659 22.8817L11.0999 22.8795C11.4885 22.8758 11.6321 22.7052 11.869 21.9654C11.9802 21.618 12.0926 21.3008 12.1187 21.2605C12.1447 21.2202 12.3404 21.1513 12.5534 21.1074C12.7665 21.0634 13.1799 20.9094 13.4722 20.7649C14.4616 20.2761 15.2137 19.3368 15.494 18.2398C15.5961 17.8403 15.6044 17.6101 15.6044 15.1788C15.6044 13.7328 15.6259 12.5498 15.6522 12.5498C15.6785 12.5498 15.7774 12.7203 15.872 12.9287C16.3323 13.9419 16.6042 15.5003 16.702 17.6855L16.7396 18.5274L16.5569 19.0762C16.3621 19.6614 16.2937 19.7446 15.8567 19.9274C15.7334 19.979 15.4728 20.0362 15.2776 20.0546C14.6752 20.1112 14.3684 20.4445 14.539 20.8569C14.6249 21.0645 14.7664 21.15 15.0911 21.1909L15.3349 21.2215L15.2208 21.3663C14.7614 21.9489 15.4534 22.6501 16.0028 22.1587L16.1787 22.0014L16.3358 22.1587C16.5446 22.3677 16.8702 22.376 17.1048 22.1785C17.3244 21.9936 17.599 21.4637 17.7201 20.9912C17.8048 20.661 17.8192 20.3483 17.818 18.8641C17.8155 15.4282 17.438 13.2733 16.6085 11.9587C16.3626 11.5691 15.896 11.1466 15.7115 11.1466C15.6081 11.1466 15.6044 11.0789 15.6044 9.21093V7.27532L15.7933 7.19629C16.1775 7.0356 16.2816 6.63513 16.02 6.32396C15.9401 6.22899 15.8296 6.15125 15.7745 6.15125C15.6268 6.15125 15.5676 6.04573 15.5306 5.71643C15.4434 4.93991 15.0677 3.91278 14.5907 3.14708C14.1985 2.51733 13.3924 1.66633 12.7635 1.21792C11.4514 0.282446 9.89322 -0.130204 8.30037 0.0359338ZM9.98793 1.21046C11.1466 1.44726 12.0942 1.96723 12.9223 2.8207C13.2216 3.12918 13.8099 3.92883 13.8099 4.02716C13.8099 4.05186 13.6578 3.97367 13.472 3.85345C12.972 3.53004 12.5318 3.39444 11.8753 3.3616C10.8348 3.30963 10.0595 3.61064 9.32382 4.3522L8.90324 4.77613L8.48267 4.35214C7.80465 3.66868 7.04947 3.34751 6.11619 3.34572C5.39499 3.34432 4.80843 3.52084 4.24509 3.90879C4.00345 4.07521 3.9905 4.0783 4.05577 3.95465C4.65725 2.8143 5.91807 1.78436 7.24013 1.35336C8.06053 1.08591 9.11123 1.03124 9.98793 1.21046ZM7.09237 4.67965C8.77292 5.50775 8.73939 7.88548 7.03545 8.71505C6.74946 8.8543 6.65492 8.87063 6.12645 8.87192C5.575 8.87333 5.51309 8.86182 5.17315 8.69423C4.30251 8.26502 3.8188 7.41384 3.90684 6.46574C3.97233 5.76061 4.43463 5.04111 5.01362 4.74318C5.45196 4.51766 5.68334 4.46788 6.2173 4.48427C6.66013 4.4979 6.77593 4.52372 7.09237 4.67965ZM12.4233 4.58485C12.8902 4.74223 13.2525 5.01967 13.5252 5.42844C13.9169 6.01559 14.0175 6.6587 13.8195 7.31113C13.6202 7.96793 13.2215 8.42622 12.593 8.72094C12.303 8.85694 12.2042 8.87327 11.679 8.87192C11.1448 8.87058 11.059 8.85531 10.7538 8.70702C10.3243 8.4984 9.86568 8.04006 9.67166 7.62561C9.53573 7.33532 9.52008 7.23811 9.52008 6.68447C9.52008 6.13324 9.53607 6.03294 9.66925 5.74854C9.93348 5.1844 10.4475 4.72859 11.0221 4.54887C11.3926 4.43297 12.0208 4.44913 12.4233 4.58485ZM5.59333 6.15406C5.50002 6.18156 5.33813 6.29241 5.2336 6.40035C4.98631 6.65573 4.93376 7.08449 5.11444 7.37253C5.47899 7.95362 6.3152 7.90518 6.58835 7.28716C6.8721 6.64506 6.2667 5.95571 5.59333 6.15406ZM11.1463 6.17881C10.4849 6.41494 10.3865 7.30075 10.9808 7.66833C11.2522 7.83626 11.7237 7.80545 11.9371 7.60591C12.1694 7.38881 12.2552 7.17378 12.2271 6.88013C12.1737 6.32463 11.6642 5.99393 11.1463 6.17881ZM10.0808 9.61118C10.708 9.93672 10.9664 9.99633 11.7351 9.99262C12.3523 9.98959 12.4805 9.9718 12.8075 9.84344C13.4204 9.60287 13.9411 9.23153 14.3006 8.77858L14.4828 8.54897V10.2314V11.914L13.5544 12.6528L12.6259 13.3917H8.92685H5.22772L4.27571 12.6281L3.32364 11.8645V10.2288V8.59297L3.67412 8.95168C4.44253 9.73814 5.2968 10.0765 6.34162 10.0084C7.20099 9.95238 7.87368 9.63677 8.51071 8.99086L8.90324 8.5928L9.32382 9.01466C9.57358 9.26515 9.88099 9.5074 10.0808 9.61118ZM6.71464 10.7927C6.79729 11.2337 7.12478 11.6954 7.52937 11.9413C7.79899 12.105 8.23414 12.2194 8.70698 12.2506C9.80966 12.3233 10.6318 11.9353 10.9864 11.1747C11.0583 11.0203 11.1174 10.8245 11.1177 10.7397L11.1183 10.5853H8.89702H6.67572L6.71464 10.7927ZM3.95932 13.8077L4.44517 14.1956V15.7364V17.2772L4.19271 17.2394C4.05387 17.2185 3.8078 17.1564 3.64597 17.1013L3.35168 17.0013L3.33687 15.1652C3.32459 13.636 3.33474 13.3367 3.39777 13.3745C3.43944 13.3994 3.69212 13.5943 3.95932 13.8077ZM14.4828 15.1775V17.0195L14.1884 17.1117C14.0266 17.1624 13.7868 17.2207 13.6557 17.2414L13.4174 17.2789V15.74V14.2012L13.9361 13.7732C14.2214 13.5377 14.4611 13.3429 14.4688 13.3404C14.4765 13.3377 14.4828 14.1645 14.4828 15.1775ZM12.2959 16.2998V18.0854L12.4633 18.2459C12.6223 18.3985 12.6535 18.4059 13.0941 18.3953C13.349 18.3892 13.7185 18.3585 13.9152 18.3273C14.1119 18.296 14.282 18.2795 14.2931 18.2907C14.3567 18.3543 13.9632 18.9652 13.672 19.2551C13.2852 19.6402 12.9119 19.8603 12.4341 19.9848C11.9433 20.1128 5.91931 20.1128 5.42847 19.9848C4.953 19.8609 4.58026 19.6412 4.19344 19.257C3.88497 18.9506 3.49849 18.3617 3.56331 18.2969C3.57784 18.2823 3.75066 18.295 3.94738 18.3251C4.28563 18.3769 4.82066 18.4086 5.10838 18.3937C5.18016 18.3901 5.31261 18.3132 5.40279 18.223L5.5667 18.0589V16.2866V14.5143H8.93128H12.2959V16.2998ZM7.58545 21.2115C7.58545 21.2214 7.54524 21.3477 7.49606 21.4921C7.418 21.7214 7.38666 21.7547 7.24899 21.7547C7.11132 21.7547 7.07997 21.7214 7.00192 21.4921C6.95274 21.3477 6.91253 21.2214 6.91253 21.2115C6.91253 21.2016 7.06394 21.1934 7.24899 21.1934C7.43404 21.1934 7.58545 21.2016 7.58545 21.2115ZM10.894 21.2571C10.894 21.2921 10.8647 21.4184 10.829 21.5377C10.7742 21.7208 10.7401 21.7547 10.6108 21.7547C10.4842 21.7547 10.4418 21.7154 10.3673 21.5291C10.3177 21.405 10.2771 21.2787 10.2771 21.2484C10.2771 21.2182 10.4159 21.1934 10.5855 21.1934C10.778 21.1934 10.894 21.2173 10.894 21.2571Z" fill="#B4A6E6"/>
</svg>
