<svg width="18" height="23" viewBox="0 0 18 23" fill="none" xmlns="http://www.w3.org/2000/svg">
<path fill-rule="evenodd" clip-rule="evenodd" d="M7.95452 0.0344366C6.42503 0.193974 5.03284 0.865744 3.95036 1.96653C3.04511 2.88708 2.40222 4.16273 2.20994 5.41994C2.14835 5.82255 2.13916 5.84105 1.97337 5.89581C1.74799 5.97026 1.62847 6.10806 1.59494 6.33204C1.55823 6.57775 1.73144 6.85455 1.94919 6.89811L2.11036 6.93039V8.80047V10.6705L1.96725 10.7064C1.75105 10.7607 1.24708 11.3107 1.0268 11.7328C0.325925 13.0754 0.0167591 15.0046 0.00122825 18.1319C-0.00484436 19.3472 0.00961161 19.6545 0.0897915 20.0145C0.337694 21.128 0.931842 21.6696 1.42329 21.2301L1.59779 21.0741L1.77534 21.2301C2.01782 21.4432 2.27701 21.4428 2.49068 21.2289C2.69682 21.0226 2.70434 20.7445 2.51067 20.4902L2.37358 20.3104H2.62228C3.05607 20.3104 3.30483 19.9329 3.1276 19.5435C3.04215 19.3558 2.88631 19.2813 2.46993 19.2289C1.76621 19.1405 1.28653 18.8167 1.12703 18.3224C1.05453 18.0976 1.04964 17.905 1.09231 16.9401C1.1827 14.8937 1.37907 13.6787 1.78872 12.6311C2.11347 11.8006 2.10966 11.7849 2.11665 13.9665C2.12428 16.352 2.14362 16.967 2.22305 17.3514C2.51824 18.7805 3.71148 19.9502 5.18358 20.2536L5.4892 20.3166L5.6343 20.7573C5.92611 21.6435 5.98076 21.7605 6.14235 21.8441C6.22726 21.8881 6.38864 21.9243 6.50091 21.9245L6.70512 21.9251L6.42895 22.0836C6.21329 22.2074 6.12204 22.3039 6.01246 22.5239C5.7637 23.0236 5.71657 22.9998 6.95291 22.9998H8.03373L7.99821 22.7981C7.94689 22.5062 7.70898 22.1929 7.43061 22.0507L7.18878 21.9271L7.39299 21.9255C7.50525 21.9247 7.66663 21.8881 7.75154 21.8441C7.91325 21.7605 7.96763 21.6439 8.26062 20.7541C8.3961 20.3428 8.41743 20.3104 8.55307 20.3104C8.69301 20.3104 8.70935 20.3407 8.92898 21.009C9.19333 21.8132 9.28383 21.924 9.67651 21.924H9.91957L9.68268 22.0492C9.40351 22.1967 9.16071 22.5174 9.11503 22.799L9.08246 22.9998H10.1686H11.2547L11.2171 22.825C11.1419 22.4758 10.9198 22.1952 10.5744 22.0133L10.4132 21.9283L10.6374 21.9262C11.0098 21.9226 11.1474 21.7591 11.3744 21.0502C11.481 20.7172 11.5887 20.4133 11.6137 20.3747C11.6387 20.336 11.8262 20.27 12.0304 20.2279C12.2345 20.1858 12.6307 20.0381 12.9109 19.8997C13.8591 19.4312 14.5798 18.5311 14.8484 17.4798C14.9462 17.097 14.9542 16.8763 14.9542 14.5464C14.9542 13.1606 14.9748 12.0269 15 12.0269C15.0252 12.0269 15.12 12.1902 15.2107 12.39C15.6518 13.361 15.9124 14.8545 16.006 16.9486L16.0422 17.7554L15.8671 18.2814C15.6804 18.8422 15.6148 18.9219 15.196 19.0971C15.0778 19.1465 14.8281 19.2014 14.6411 19.2189C14.0637 19.2732 13.7697 19.5927 13.9332 19.9879C14.0155 20.1868 14.1512 20.2688 14.4623 20.3079L14.6959 20.3373L14.5866 20.476C14.1464 21.0344 14.8095 21.7063 15.336 21.2354L15.5045 21.0847L15.6552 21.2354C15.8553 21.4357 16.1673 21.4437 16.3921 21.2544C16.6026 21.0772 16.8657 20.5694 16.9818 20.1166C17.0629 19.8001 17.0768 19.5005 17.0756 18.0781C17.0732 14.7854 16.7114 12.7203 15.9165 11.4604C15.6809 11.087 15.2337 10.6822 15.0568 10.6822C14.9578 10.6822 14.9542 10.6172 14.9542 8.82715V6.97218L15.1352 6.89645C15.5035 6.74245 15.6032 6.35867 15.3525 6.06046C15.2759 5.96945 15.1701 5.89495 15.1172 5.89495C14.9757 5.89495 14.919 5.79383 14.8835 5.47825C14.7999 4.73408 14.4398 3.74974 13.9828 3.01595C13.6069 2.41244 12.8344 1.5969 12.2317 1.16718C10.9743 0.270677 9.481 -0.124779 7.95452 0.0344366ZM9.57177 1.16002C10.6822 1.38696 11.5902 1.88526 12.3839 2.70317C12.6707 2.9988 13.2345 3.76513 13.2345 3.85936C13.2345 3.88303 13.0888 3.8081 12.9106 3.69289C12.4315 3.38296 12.0096 3.253 11.3805 3.22154C10.3833 3.17173 9.64034 3.4602 8.93532 4.17086L8.53228 4.57712L8.12923 4.1708C7.47946 3.51581 6.75574 3.20803 5.86135 3.20631C5.1702 3.20497 4.60808 3.37413 4.06821 3.74592C3.83664 3.90541 3.82423 3.90837 3.88678 3.78987C4.4632 2.69704 5.67149 1.71001 6.93846 1.29697C7.72467 1.04067 8.7316 0.988275 9.57177 1.16002ZM6.79685 4.48466C8.40738 5.27826 8.37525 7.55692 6.74231 8.35192C6.46823 8.48537 6.37763 8.50102 5.87118 8.50226C5.3427 8.50361 5.28338 8.49258 4.9576 8.33197C4.12324 7.92064 3.65968 7.10493 3.74405 6.19633C3.80682 5.52058 4.24985 4.83106 4.80471 4.54555C5.2248 4.32943 5.44653 4.28172 5.95824 4.29742C6.38263 4.31049 6.4936 4.33523 6.79685 4.48466ZM11.9057 4.39381C12.3531 4.54464 12.7003 4.81051 12.9617 5.20226C13.3371 5.76494 13.4334 6.38126 13.2437 7.0065C13.0527 7.63594 12.6706 8.07512 12.0683 8.35757C11.7904 8.4879 11.6957 8.50355 11.1924 8.50226C10.6805 8.50097 10.5983 8.48634 10.3057 8.34423C9.89415 8.1443 9.45461 7.70506 9.26867 7.30788C9.13841 7.02968 9.12341 6.93652 9.12341 6.40595C9.12341 5.87769 9.13873 5.78156 9.26636 5.50902C9.51958 4.96838 10.0122 4.53156 10.5629 4.35933C10.9179 4.24826 11.5199 4.26375 11.9057 4.39381ZM5.36028 5.89764C5.27085 5.924 5.11571 6.03023 5.01554 6.13367C4.77854 6.37841 4.72819 6.7893 4.90134 7.06534C5.2507 7.62222 6.05207 7.5758 6.31384 6.98353C6.58576 6.36819 6.00559 5.70755 5.36028 5.89764ZM10.6819 5.92136C10.0481 6.14765 9.9537 6.99655 10.5232 7.34881C10.7833 7.50975 11.2352 7.48022 11.4398 7.289C11.6623 7.08094 11.7446 6.87488 11.7176 6.59345C11.6665 6.0611 11.1782 5.74418 10.6819 5.92136ZM9.66081 9.21071C10.2618 9.52269 10.5095 9.57981 11.2461 9.57626C11.8376 9.57336 11.9604 9.55631 12.2738 9.43329C12.8612 9.20275 13.3602 8.84689 13.7047 8.41281L13.8794 8.19276V9.80514V11.4176L12.9896 12.1256L12.0999 12.8337H8.5549H5.00989L4.09755 12.1019L3.18516 11.3701V9.80255V8.23493L3.52103 8.57869C4.25743 9.33238 5.0761 9.65668 6.07738 9.59138C6.90095 9.5377 7.54561 9.23524 8.1561 8.61624L8.53228 8.23477L8.93532 8.63905C9.17468 8.87911 9.46928 9.11126 9.66081 9.21071ZM6.43486 10.343C6.51407 10.7656 6.82791 11.2081 7.21565 11.4437C7.47403 11.6007 7.89105 11.7102 8.34419 11.7401C9.40093 11.8098 10.1888 11.438 10.5286 10.7091C10.5976 10.5611 10.6542 10.3735 10.6545 10.2922L10.655 10.1443H8.52631H6.39756L6.43486 10.343ZM3.79435 13.2323L4.25995 13.6041V15.0807V16.5574L4.01802 16.5211C3.88496 16.5011 3.64915 16.4416 3.49405 16.3888L3.21203 16.2929L3.19784 14.5333C3.18607 13.0679 3.1958 12.781 3.2562 12.8172C3.29613 12.8411 3.53828 13.0279 3.79435 13.2323ZM13.8794 14.5451V16.3104L13.5973 16.3987C13.4421 16.4473 13.2123 16.5032 13.0867 16.523L12.8583 16.5589V15.0842V13.6095L13.3554 13.1993C13.6288 12.9736 13.8586 12.787 13.866 12.7845C13.8733 12.782 13.8794 13.5743 13.8794 14.5451ZM11.7835 15.6207V17.3319L11.944 17.4856C12.0964 17.6319 12.1263 17.6389 12.5485 17.6288C12.7928 17.623 13.1469 17.5936 13.3354 17.5636C13.5239 17.5336 13.6869 17.5179 13.6976 17.5286C13.7585 17.5895 13.3814 18.175 13.1023 18.4528C12.7316 18.8219 12.3739 19.0328 11.916 19.1521C11.4456 19.2748 5.67267 19.2748 5.20228 19.1521C4.74662 19.0334 4.38941 18.8228 4.01872 18.4547C3.72309 18.161 3.35272 17.5967 3.41484 17.5345C3.42876 17.5205 3.59438 17.5327 3.7829 17.5615C4.10706 17.6112 4.6198 17.6415 4.89554 17.6273C4.96432 17.6238 5.09126 17.5502 5.17767 17.4637L5.33475 17.3065V15.608V13.9095H8.55914H11.7835V15.6207ZM7.26939 20.3277C7.26939 20.3372 7.23086 20.4582 7.18373 20.5966C7.10892 20.8163 7.07888 20.8483 6.94695 20.8483C6.81502 20.8483 6.78498 20.8163 6.71017 20.5966C6.66304 20.4582 6.62451 20.3372 6.62451 20.3277C6.62451 20.3182 6.76961 20.3104 6.94695 20.3104C7.12429 20.3104 7.26939 20.3182 7.26939 20.3277ZM10.44 20.3714C10.44 20.4049 10.412 20.526 10.3778 20.6403C10.3253 20.8158 10.2926 20.8483 10.1687 20.8483C10.0474 20.8483 10.0067 20.8106 9.93537 20.632C9.88781 20.5131 9.8489 20.3921 9.8489 20.3631C9.8489 20.3341 9.98191 20.3104 10.1445 20.3104C10.329 20.3104 10.44 20.3333 10.44 20.3714Z" fill="#B4A6E6"/>
</svg>
