<svg width="30" height="18" viewBox="0 0 30 18" fill="none" xmlns="http://www.w3.org/2000/svg">
<mask id="path-1-inside-1_1084_345" fill="white">
<path fill-rule="evenodd" clip-rule="evenodd" d="M16.6306 8.41582C18.3085 7.81835 19.5097 6.21588 19.5097 4.33287C19.5097 1.93989 17.5698 0 15.1768 0C12.7839 0 10.844 1.93989 10.844 4.33287C10.844 6.19298 12.0161 7.77932 13.6621 8.39357C12.5236 8.5794 11.4926 8.98845 10.5941 9.57563C10.4249 9.43864 10.2486 9.31017 10.0656 9.1908C9.96559 9.12557 9.86361 9.06307 9.75971 9.00337C9.13272 8.64315 8.43569 8.38547 7.68321 8.25169C8.06119 8.11718 8.40816 7.91726 8.71049 7.66556C8.95909 7.45859 9.17752 7.2166 9.35819 6.94717C9.7185 6.40987 9.92868 5.76343 9.92868 5.06791C9.92868 3.20204 8.41609 1.68945 6.55023 1.68945C4.68436 1.68945 3.17177 3.20204 3.17177 5.06791C3.17177 5.74643 3.3718 6.37823 3.7161 6.90756C3.8925 7.17876 4.10677 7.42307 4.35142 7.63298C4.65024 7.88937 4.99437 8.09444 5.37016 8.23454C4.61268 8.35815 3.91618 8.60851 3.29282 8.96377C3.19166 9.02142 3.09243 9.08183 2.99518 9.14491C1.34344 10.2163 0.262259 12.0575 0.00624497 14.2112C-0.0589543 14.7596 0.395384 15.2094 0.947717 15.2094H6.9198C6.82651 15.6667 6.7632 16.1375 6.73153 16.6189C6.71333 16.8956 6.81592 17.1894 7.07718 17.2823C7.18197 17.3196 7.29481 17.3399 7.41239 17.3399H22.7438C23.0324 17.3399 23.2925 17.2176 23.475 17.0221C23.5966 16.8919 23.6278 16.7062 23.6139 16.5286C23.5787 16.0787 23.5142 15.6383 23.4223 15.2098H29.0545C29.6069 15.2098 30.0614 14.7599 29.9928 14.2119C29.7267 12.0889 28.6182 10.2695 26.9668 9.19181C26.8665 9.12634 26.7642 9.06362 26.66 9.00373C26.0328 8.64345 25.3356 8.38575 24.583 8.25202C24.9616 8.11741 25.309 7.9172 25.6118 7.66506C25.86 7.45831 26.0781 7.21664 26.2586 6.94761C26.6191 6.41022 26.8294 5.76362 26.8294 5.06791C26.8294 3.20204 25.3168 1.68945 23.4509 1.68945C21.585 1.68945 20.0725 3.20204 20.0725 5.06791C20.0725 5.74654 20.2725 6.37844 20.617 6.90783C20.7931 7.17865 21.0071 7.42265 21.2514 7.63235C21.5505 7.88919 21.8952 8.09459 22.2716 8.23481C21.5139 8.35833 20.8172 8.60866 20.1937 8.96392C20.0922 9.02176 19.9926 9.08237 19.895 9.14568C19.7394 9.24667 19.5888 9.35449 19.4435 9.46877C18.6011 8.96028 17.656 8.59834 16.6306 8.41582ZM9.24498 10.6893C8.4746 11.4823 7.85998 12.4389 7.42874 13.5094H1.86741C2.39294 11.5593 3.80968 10.2117 5.64395 9.91235L6.51365 9.77042L7.38565 9.92545C8.0684 10.0468 8.69673 10.3097 9.24498 10.6893ZM28.1195 13.5098H22.8887C22.411 12.3756 21.7211 11.3692 20.8592 10.5498C21.3624 10.2309 21.9303 10.0129 22.5451 9.91266L23.4142 9.77097L24.2856 9.9258C26.1274 10.2531 27.5733 11.6102 28.1195 13.5098ZM23.4375 6.85504L24.0135 6.65026C24.6662 6.41818 25.1294 5.79496 25.1294 5.06791C25.1294 4.14092 24.3779 3.38945 23.4509 3.38945C22.5239 3.38945 21.7725 4.14092 21.7725 5.06791C21.7725 5.78613 22.2244 6.40308 22.8651 6.64177L23.4375 6.85504ZM7.11323 6.6501L6.53688 6.85521L5.96401 6.64164C5.32351 6.40285 4.87177 5.78599 4.87177 5.06791C4.87177 4.14092 5.62324 3.38945 6.55023 3.38945C7.47721 3.38945 8.22868 4.14092 8.22868 5.06791C8.22868 5.79479 7.7657 6.41789 7.11323 6.6501Z"/>
</mask>
<path d="M16.6306 8.41582L16.0603 6.81432L10.0186 8.96567L16.3327 10.0895L16.6306 8.41582ZM13.6621 8.39357L13.9359 10.0714L20.2558 9.03979L14.2564 6.80087L13.6621 8.39357ZM10.5941 9.57563L9.52459 10.897L10.4873 11.6762L11.5241 10.9987L10.5941 9.57563ZM10.0656 9.1908L10.9944 7.76698L10.9944 7.76698L10.0656 9.1908ZM9.75971 9.00337L8.91283 10.4774L8.91284 10.4774L9.75971 9.00337ZM7.68321 8.25169L7.11323 6.6501L1.06652 8.80203L7.38565 9.92545L7.68321 8.25169ZM8.71049 7.66556L9.79818 8.97205L9.79818 8.97205L8.71049 7.66556ZM9.35819 6.94717L7.94627 6.00035L7.94627 6.00035L9.35819 6.94717ZM3.7161 6.90756L2.29103 7.83448L2.29103 7.83448L3.7161 6.90756ZM4.35142 7.63298L3.24443 8.92317L3.24443 8.92317L4.35142 7.63298ZM5.37016 8.23454L5.64395 9.91235L11.9687 8.88025L5.96401 6.64164L5.37016 8.23454ZM3.29282 8.96377L2.45108 7.48678L3.29282 8.96377ZM2.99518 9.14491L2.07008 7.71866L2.07008 7.71866L2.99518 9.14491ZM0.00624497 14.2112L1.69436 14.4118L1.69436 14.4118L0.00624497 14.2112ZM6.9198 15.2094L8.58549 15.5492L9.00166 13.5094H6.9198V15.2094ZM6.73153 16.6189L5.0352 16.5073L5.0352 16.5073L6.73153 16.6189ZM7.07718 17.2823L6.50742 18.884L6.50743 18.884L7.07718 17.2823ZM23.475 17.0221L22.2323 15.862L22.2323 15.862L23.475 17.0221ZM23.6139 16.5286L25.3087 16.3957L25.3087 16.3957L23.6139 16.5286ZM23.4223 15.2098V13.5098H21.3189L21.7601 15.5664L23.4223 15.2098ZM29.9928 14.2119L28.3059 14.4233L28.3059 14.4233L29.9928 14.2119ZM26.9668 9.19181L26.0378 10.6155L26.0378 10.6155L26.9668 9.19181ZM26.66 9.00373L27.5068 7.52967L27.5068 7.52966L26.66 9.00373ZM24.583 8.25202L24.0135 6.65025L17.9615 8.8021L24.2856 9.9258L24.583 8.25202ZM25.6118 7.66506L24.5238 6.35882L24.5238 6.35882L25.6118 7.66506ZM26.2586 6.94761L27.6704 7.89465L27.6704 7.89465L26.2586 6.94761ZM20.617 6.90783L19.192 7.83488L19.192 7.83488L20.617 6.90783ZM21.2514 7.63235L22.3587 6.34248L22.3587 6.34248L21.2514 7.63235ZM22.2716 8.23481L22.5451 9.91266L28.8749 8.88074L22.865 6.64177L22.2716 8.23481ZM20.1937 8.96392L21.0353 10.441L21.0353 10.441L20.1937 8.96392ZM19.895 9.14568L20.8203 10.5718L20.8203 10.5718L19.895 9.14568ZM19.4435 9.46877L18.5649 10.9242L19.5708 11.5314L20.4944 10.805L19.4435 9.46877ZM7.42874 13.5094V15.2094H8.57667L9.00561 14.1446L7.42874 13.5094ZM9.24498 10.6893L10.4643 11.8739L11.8629 10.4343L10.2127 9.29167L9.24498 10.6893ZM1.86741 13.5094L0.225974 13.067L-0.351368 15.2094H1.86741V13.5094ZM5.64395 9.91235L5.37016 8.23454L5.37016 8.23454L5.64395 9.91235ZM6.51365 9.77042L6.81122 8.09667L6.52588 8.04594L6.23986 8.09262L6.51365 9.77042ZM7.38565 9.92545L7.08809 11.5992L7.08809 11.5992L7.38565 9.92545ZM22.8887 13.5098L21.322 14.1697L21.7601 15.2098H22.8887V13.5098ZM28.1195 13.5098V15.2098H30.3773L29.7533 13.04L28.1195 13.5098ZM20.8592 10.5498L19.9491 9.11397L18.1088 10.2805L19.6878 11.7818L20.8592 10.5498ZM22.5451 9.91266L22.2716 8.23481L22.2716 8.23481L22.5451 9.91266ZM23.4142 9.77097L23.7116 8.09719L23.4265 8.04653L23.1407 8.09312L23.4142 9.77097ZM24.2856 9.9258L23.9882 11.5996L23.9882 11.5996L24.2856 9.9258ZM24.0135 6.65026L23.4439 5.04849L23.4439 5.04849L24.0135 6.65026ZM23.4375 6.85504L22.844 8.44808L23.4239 8.66413L24.007 8.4568L23.4375 6.85504ZM22.8651 6.64177L23.4585 5.04873L23.4585 5.04873L22.8651 6.64177ZM6.53688 6.85521L5.94302 8.44811L6.52336 8.66447L7.10686 8.45681L6.53688 6.85521ZM7.11323 6.6501L6.54324 5.0485L6.54324 5.0485L7.11323 6.6501ZM5.96401 6.64164L6.55787 5.04874L6.55787 5.04874L5.96401 6.64164ZM17.8097 4.33287C17.8097 5.47442 17.0823 6.45043 16.0603 6.81432L17.2009 10.0173C19.5348 9.18626 21.2097 6.95734 21.2097 4.33287H17.8097ZM15.1768 1.7C16.6309 1.7 17.8097 2.87877 17.8097 4.33287H21.2097C21.2097 1.00101 18.5087 -1.7 15.1768 -1.7V1.7ZM12.544 4.33287C12.544 2.87877 13.7227 1.7 15.1768 1.7V-1.7C11.845 -1.7 9.14397 1.00101 9.14397 4.33287H12.544ZM14.2564 6.80087C13.2536 6.42663 12.544 5.46049 12.544 4.33287H9.14397C9.14397 6.92547 10.7786 9.13201 13.0677 9.98628L14.2564 6.80087ZM11.5241 10.9987C12.224 10.5413 13.0315 10.219 13.9359 10.0714L13.3882 6.71578C12.0158 6.93979 10.7613 7.43556 9.66413 8.15256L11.5241 10.9987ZM9.13673 10.6146C9.27073 10.702 9.40011 10.7963 9.52459 10.897L11.6636 8.25422C11.4496 8.081 11.2264 7.91831 10.9944 7.76698L9.13673 10.6146ZM8.91284 10.4774C8.98888 10.5211 9.06352 10.5669 9.13673 10.6146L10.9944 7.76698C10.8677 7.68429 10.7383 7.60503 10.6066 7.52933L8.91284 10.4774ZM7.38565 9.92545C7.94415 10.0247 8.45541 10.2146 8.91283 10.4774L10.6066 7.52933C9.81003 7.07169 8.92723 6.7462 7.98078 6.57794L7.38565 9.92545ZM7.62279 6.35907C7.47167 6.48488 7.2994 6.58384 7.11323 6.6501L8.2532 9.85329C8.82298 9.65051 9.34464 9.34964 9.79818 8.97205L7.62279 6.35907ZM7.94627 6.00035C7.85624 6.13461 7.74711 6.25557 7.62279 6.35907L9.79818 8.97205C10.1711 8.6616 10.4988 8.29859 10.7701 7.89399L7.94627 6.00035ZM8.22868 5.06791C8.22868 5.41585 8.12465 5.73435 7.94627 6.00035L10.7701 7.89399C11.3124 7.0854 11.6287 6.11102 11.6287 5.06791H8.22868ZM6.55023 3.38945C7.47721 3.38945 8.22868 4.14092 8.22868 5.06791H11.6287C11.6287 2.26315 9.35498 -0.0105469 6.55023 -0.0105469V3.38945ZM4.87177 5.06791C4.87177 4.14092 5.62324 3.38945 6.55023 3.38945V-0.0105469C3.74547 -0.0105469 1.47177 2.26315 1.47177 5.06791H4.87177ZM5.14117 5.98064C4.97084 5.71878 4.87177 5.4075 4.87177 5.06791H1.47177C1.47177 6.08535 1.77276 7.03767 2.29103 7.83448L5.14117 5.98064ZM5.45841 6.3428C5.33604 6.2378 5.22901 6.11569 5.14117 5.98064L2.29103 7.83448C2.55599 8.24183 2.87751 8.60834 3.24443 8.92317L5.45841 6.3428ZM5.96401 6.64164C5.77883 6.5726 5.60784 6.47101 5.45841 6.3428L3.24443 8.92317C3.69264 9.30773 4.20992 9.61629 4.7763 9.82744L5.96401 6.64164ZM4.13456 10.4407C4.58127 10.1862 5.08533 10.0035 5.64395 9.91235L5.09636 6.55673C4.14003 6.71279 3.25109 7.03086 2.45108 7.48678L4.13456 10.4407ZM3.92028 10.5712C3.99032 10.5257 4.06176 10.4822 4.13456 10.4407L2.45108 7.48678C2.32157 7.56059 2.19454 7.63793 2.07008 7.71866L3.92028 10.5712ZM1.69436 14.4118C1.89814 12.6976 2.74222 11.3353 3.92028 10.5712L2.07008 7.71866C-0.0553382 9.09726 -1.37362 11.4174 -1.68187 14.0105L1.69436 14.4118ZM0.947717 13.5094C1.13418 13.5094 1.32405 13.5854 1.46933 13.7361C1.6231 13.8956 1.72622 14.1438 1.69436 14.4118L-1.68187 14.0105C-1.88343 15.7061 -0.481241 16.9094 0.947717 16.9094V13.5094ZM6.9198 13.5094H0.947717V16.9094H6.9198V13.5094ZM8.42786 16.7305C8.45456 16.3247 8.50777 15.9302 8.58549 15.5492L5.25411 14.8695C5.14524 15.4032 5.07184 15.9503 5.0352 16.5073L8.42786 16.7305ZM7.64693 15.6806C8.02307 15.8144 8.24115 16.0894 8.33911 16.2985C8.42704 16.4863 8.43382 16.64 8.42786 16.7305L5.0352 16.5073C4.99634 17.098 5.18279 18.4128 6.50742 18.884L7.64693 15.6806ZM7.41239 15.6399C7.49166 15.6399 7.57138 15.6537 7.64692 15.6806L6.50743 18.884C6.79255 18.9854 7.09795 19.0399 7.41239 19.0399V15.6399ZM22.7438 15.6399H7.41239V19.0399H22.7438V15.6399ZM22.2323 15.862C22.3578 15.7276 22.5419 15.6399 22.7438 15.6399V19.0399C23.5229 19.0399 24.2271 18.7077 24.7177 18.1822L22.2323 15.862ZM21.9191 16.6614C21.9153 16.613 21.9128 16.5133 21.9462 16.3799C21.9813 16.2401 22.0614 16.0451 22.2323 15.862L24.7177 18.1822C25.3021 17.5561 25.3405 16.8014 25.3087 16.3957L21.9191 16.6614ZM21.7601 15.5664C21.8361 15.9206 21.8897 16.2862 21.9191 16.6614L25.3087 16.3957C25.2676 15.8712 25.1923 15.356 25.0845 14.8532L21.7601 15.5664ZM29.0545 13.5098H23.4223V16.9098H29.0545V13.5098ZM28.3059 14.4233C28.2719 14.1515 28.376 13.8993 28.5314 13.7378C28.6777 13.5856 28.8683 13.5098 29.0545 13.5098V16.9098C30.4797 16.9098 31.8934 15.7065 31.6796 14.0004L28.3059 14.4233ZM26.0378 10.6155C27.24 11.4 28.0973 12.7585 28.3059 14.4233L31.6796 14.0004C31.3561 11.4193 29.9965 9.13899 27.8959 7.76814L26.0378 10.6155ZM25.8131 10.4778C25.8894 10.5216 25.9643 10.5675 26.0378 10.6155L27.8959 7.76815C27.7687 7.68515 27.639 7.60562 27.5068 7.52967L25.8131 10.4778ZM24.2856 9.9258C24.8442 10.0251 25.3556 10.215 25.8131 10.4778L27.5068 7.52966C26.7101 7.07195 25.8271 6.74645 24.8804 6.57823L24.2856 9.9258ZM24.5238 6.35882C24.3725 6.48485 24.1999 6.58396 24.0135 6.65025L25.1525 9.85378C25.7232 9.65087 26.2456 9.34955 26.6998 8.9713L24.5238 6.35882ZM24.8468 6.00056C24.7569 6.13463 24.6479 6.25544 24.5238 6.35882L26.6998 8.97131C27.0721 8.66119 27.3993 8.29866 27.6704 7.89465L24.8468 6.00056ZM25.1294 5.06791C25.1294 5.41594 25.0253 5.73452 24.8468 6.00057L27.6704 7.89465C28.2129 7.08592 28.5294 6.1113 28.5294 5.06791H25.1294ZM23.4509 3.38945C24.3779 3.38945 25.1294 4.14092 25.1294 5.06791H28.5294C28.5294 2.26315 26.2557 -0.0105469 23.4509 -0.0105469V3.38945ZM21.7725 5.06791C21.7725 4.14092 22.5239 3.38945 23.4509 3.38945V-0.0105469C20.6462 -0.0105469 18.3725 2.26315 18.3725 5.06791H21.7725ZM22.0419 5.98077C21.8716 5.71889 21.7725 5.40756 21.7725 5.06791H18.3725C18.3725 6.08552 18.6735 7.03799 19.192 7.83488L22.0419 5.98077ZM22.3587 6.34248C22.2365 6.23759 22.1297 6.11564 22.0419 5.98077L19.192 7.83488C19.4566 8.24166 19.7777 8.60771 20.144 8.92221L22.3587 6.34248ZM22.865 6.64177C22.6796 6.57267 22.5083 6.47092 22.3587 6.34248L20.144 8.92221C20.5928 9.30747 21.1108 9.61651 21.6781 9.82785L22.865 6.64177ZM21.0353 10.441C21.4821 10.1864 21.9863 10.0038 22.5451 9.91266L21.998 6.55696C21.0415 6.7129 20.1523 7.03092 19.3521 7.48686L21.0353 10.441ZM20.8203 10.5718C20.8906 10.5262 20.9622 10.4826 21.0353 10.441L19.3521 7.48686C19.2221 7.56091 19.0947 7.63851 18.9698 7.71953L20.8203 10.5718ZM20.4944 10.805C20.5995 10.7224 20.7082 10.6446 20.8203 10.5718L18.9698 7.71952C18.7706 7.84877 18.5781 7.98663 18.3926 8.13252L20.4944 10.805ZM16.3327 10.0895C17.1518 10.2353 17.9002 10.5229 18.5649 10.9242L20.322 8.01339C19.3021 7.39768 18.1603 6.96137 16.9285 6.74213L16.3327 10.0895ZM9.00561 14.1446C9.35884 13.2677 9.85562 12.5005 10.4643 11.8739L8.02565 9.50477C7.09357 10.4642 6.36113 11.61 5.85188 12.8742L9.00561 14.1446ZM7.42874 11.8094H1.86741V15.2094H7.42874V11.8094ZM3.50885 13.9517C3.87943 12.5766 4.81078 11.7708 5.91775 11.5902L5.37016 8.23454C2.80859 8.65256 0.906458 10.5419 0.225974 13.067L3.50885 13.9517ZM5.91775 11.5902L6.78745 11.4482L6.23986 8.09262L5.37016 8.23454L5.91775 11.5902ZM6.21609 11.4442L7.08809 11.5992L7.68321 8.25169L6.81122 8.09667L6.21609 11.4442ZM7.08809 11.5992C7.52863 11.6775 7.92863 11.8456 8.27725 12.087L10.2127 9.29167C9.46483 8.77384 8.60817 8.41613 7.68321 8.25169L7.08809 11.5992ZM22.8887 15.2098H28.1195V11.8098H22.8887V15.2098ZM19.6878 11.7818C20.3739 12.4341 20.932 13.2436 21.322 14.1697L24.4554 12.8499C23.89 11.5075 23.0682 10.3044 22.0306 9.3178L19.6878 11.7818ZM22.2716 8.23481C21.4319 8.3717 20.6472 8.67145 19.9491 9.11397L21.7694 11.9857C22.0776 11.7903 22.4287 11.6541 22.8186 11.5905L22.2716 8.23481ZM23.1407 8.09312L22.2716 8.23481L22.8186 11.5905L23.6877 11.4488L23.1407 8.09312ZM24.583 8.25202L23.7116 8.09719L23.1168 11.4448L23.9882 11.5996L24.583 8.25202ZM29.7533 13.04C29.042 10.5664 27.1126 8.70149 24.583 8.25202L23.9882 11.5996C25.1422 11.8046 26.1045 12.6541 26.4858 13.9797L29.7533 13.04ZM23.4439 5.04849L22.868 5.25328L24.007 8.4568L24.583 8.25202L23.4439 5.04849ZM23.4294 5.06791C23.4294 5.06822 23.4294 5.06557 23.4307 5.06177C23.4318 5.05846 23.4331 5.05626 23.4339 5.05506C23.4347 5.054 23.4355 5.05315 23.4367 5.05225C23.438 5.05122 23.4404 5.04974 23.4439 5.04849L24.583 8.25202C25.8957 7.78528 26.8294 6.53296 26.8294 5.06791H23.4294ZM23.4509 5.08945C23.4517 5.08945 23.4506 5.0895 23.4484 5.08904C23.4462 5.0886 23.444 5.08791 23.442 5.08706C23.4382 5.08545 23.4364 5.08386 23.4357 5.08314C23.435 5.08243 23.4334 5.08062 23.4318 5.07681C23.4309 5.0748 23.4302 5.07259 23.4298 5.07045C23.4293 5.0682 23.4294 5.06716 23.4294 5.06791H26.8294C26.8294 3.20204 25.3168 1.68945 23.4509 1.68945V5.08945ZM23.4725 5.06791C23.4725 5.06716 23.4725 5.0682 23.472 5.07045C23.4716 5.07259 23.4709 5.0748 23.4701 5.07681C23.4685 5.08062 23.4669 5.08243 23.4661 5.08314C23.4654 5.08386 23.4636 5.08545 23.4598 5.08706C23.4578 5.08791 23.4556 5.0886 23.4534 5.08904C23.4512 5.0895 23.4502 5.08945 23.4509 5.08945V1.68945C21.585 1.68945 20.0725 3.20204 20.0725 5.06791H23.4725ZM23.4585 5.04873C23.4618 5.04994 23.464 5.05133 23.4652 5.0523C23.4663 5.05315 23.4671 5.05401 23.4679 5.05513C23.4688 5.05639 23.4701 5.05864 23.4712 5.06193C23.4724 5.06571 23.4725 5.06828 23.4725 5.06791H20.0725C20.0725 6.51526 20.9837 7.75502 22.2716 8.23481L23.4585 5.04873ZM24.031 5.262L23.4585 5.04873L22.2716 8.23481L22.844 8.44808L24.031 5.262ZM7.10686 8.45681L7.68321 8.25169L6.54324 5.0485L5.96689 5.25361L7.10686 8.45681ZM5.37016 8.23454L5.94302 8.44811L7.13073 5.26231L6.55787 5.04874L5.37016 8.23454ZM3.17177 5.06791C3.17177 6.51499 4.08268 7.75455 5.37016 8.23454L6.55787 5.04874C6.56109 5.04994 6.56329 5.05133 6.56453 5.0523C6.56564 5.05315 6.56645 5.05401 6.56724 5.05513C6.56814 5.0564 6.56943 5.05864 6.57049 5.06194C6.5717 5.06571 6.57177 5.06828 6.57177 5.06791H3.17177ZM6.55023 1.68945C4.68436 1.68945 3.17177 3.20204 3.17177 5.06791H6.57177C6.57177 5.06716 6.57182 5.0682 6.57136 5.07045C6.57092 5.07259 6.57023 5.0748 6.56938 5.07681C6.56777 5.08062 6.56618 5.08243 6.56546 5.08314C6.56475 5.08386 6.56294 5.08545 6.55914 5.08706C6.55712 5.08791 6.55492 5.0886 6.55277 5.08904C6.55052 5.0895 6.54948 5.08945 6.55023 5.08945V1.68945ZM9.92868 5.06791C9.92868 3.20204 8.41609 1.68945 6.55023 1.68945V5.08945C6.55097 5.08945 6.54993 5.0895 6.54769 5.08904C6.54554 5.0886 6.54333 5.08791 6.54132 5.08706C6.53751 5.08545 6.53571 5.08386 6.53499 5.08314C6.53428 5.08243 6.53268 5.08062 6.53107 5.07682C6.53022 5.0748 6.52953 5.0726 6.52909 5.07045C6.52863 5.0682 6.52868 5.06716 6.52868 5.06791H9.92868ZM7.68321 8.25169C8.99541 7.7847 9.92868 6.53262 9.92868 5.06791H6.52868C6.52868 5.06822 6.52877 5.06557 6.53001 5.06177C6.53109 5.05846 6.53238 5.05626 6.53324 5.05506C6.534 5.054 6.53481 5.05315 6.536 5.05225C6.53734 5.05123 6.53975 5.04974 6.54324 5.0485L7.68321 8.25169Z" fill="#6F6B7B" mask="url(#path-1-inside-1_1084_345)"/>
</svg>
