<svg width="28" height="16" viewBox="0 0 28 16" fill="none" xmlns="http://www.w3.org/2000/svg">
<mask id="path-1-inside-1_1813_551" fill="white">
<path fill-rule="evenodd" clip-rule="evenodd" d="M22.6759 7.6145C23.8837 7.18497 24.7485 6.03172 24.7485 4.67648C24.7485 2.95479 23.3528 1.55908 21.6311 1.55908C19.9095 1.55908 18.5137 2.95479 18.5137 4.67648C18.5137 6.01534 19.3578 7.15707 20.5428 7.59862C17.8283 8.0412 15.9624 10.2476 15.602 13.0371C15.5312 13.5849 15.9862 14.0347 16.5385 14.0347H26.7245C27.2768 14.0347 27.732 13.5847 27.6575 13.0374C27.282 10.2797 25.3617 8.0918 22.6759 7.6145Z"/>
</mask>
<path fill-rule="evenodd" clip-rule="evenodd" d="M22.6759 7.6145C23.8837 7.18497 24.7485 6.03172 24.7485 4.67648C24.7485 2.95479 23.3528 1.55908 21.6311 1.55908C19.9095 1.55908 18.5137 2.95479 18.5137 4.67648C18.5137 6.01534 19.3578 7.15707 20.5428 7.59862C17.8283 8.0412 15.9624 10.2476 15.602 13.0371C15.5312 13.5849 15.9862 14.0347 16.5385 14.0347H26.7245C27.2768 14.0347 27.732 13.5847 27.6575 13.0374C27.282 10.2797 25.3617 8.0918 22.6759 7.6145Z" fill="#262038"/>
<path d="M22.6759 7.6145L22.1733 6.20121L16.8342 8.09987L22.4134 9.09137L22.6759 7.6145ZM20.5428 7.59862L20.7842 9.07907L26.3684 8.16857L21.0665 6.19302L20.5428 7.59862ZM15.602 13.0371L17.0896 13.2293L17.0896 13.2293L15.602 13.0371ZM27.6575 13.0374L26.1712 13.2398L26.1712 13.2398L27.6575 13.0374ZM23.2485 4.67648C23.2485 5.37727 22.802 5.97762 22.1733 6.20121L23.1785 9.0278C24.9655 8.39232 26.2485 6.68616 26.2485 4.67648H23.2485ZM21.6311 3.05908C22.5244 3.05908 23.2485 3.78322 23.2485 4.67648H26.2485C26.2485 2.12636 24.1813 0.059082 21.6311 0.059082V3.05908ZM20.0137 4.67648C20.0137 3.78322 20.7379 3.05908 21.6311 3.05908V0.059082C19.081 0.059082 17.0137 2.12636 17.0137 4.67648H20.0137ZM21.0665 6.19302C20.4494 5.96307 20.0137 5.36876 20.0137 4.67648H17.0137C17.0137 6.66193 18.2662 8.35108 20.019 9.00421L21.0665 6.19302ZM17.0896 13.2293C17.3786 10.9924 18.8232 9.3988 20.7842 9.07907L20.3014 6.11817C16.8335 6.68361 14.5461 9.50287 14.1144 12.845L17.0896 13.2293ZM16.5385 12.5347C16.6698 12.5347 16.8086 12.588 16.9179 12.7017C17.0355 12.824 17.1168 13.0195 17.0896 13.2293L14.1144 12.845C13.9107 14.4213 15.2192 15.5347 16.5385 15.5347V12.5347ZM26.7245 12.5347H16.5385V15.5347H26.7245V12.5347ZM26.1712 13.2398C26.1422 13.0264 26.2244 12.8271 26.3436 12.7029C26.4539 12.5879 26.5934 12.5347 26.7245 12.5347V15.5347C28.0402 15.5347 29.3597 14.4212 29.1438 12.8351L26.1712 13.2398ZM22.4134 9.09137C24.3896 9.44256 25.8739 11.0563 26.1712 13.2398L29.1438 12.8351C28.6901 9.50315 26.3337 6.74103 22.9383 6.13764L22.4134 9.09137Z" fill="#B4A6E6" mask="url(#path-1-inside-1_1813_551)"/>
<mask id="path-3-inside-2_1813_551" fill="white">
<path fill-rule="evenodd" clip-rule="evenodd" d="M7.08135 7.61433C8.28895 7.18466 9.15352 6.03154 9.15352 4.67648C9.15352 2.95479 7.75781 1.55908 6.03612 1.55908C4.31443 1.55908 2.91872 2.95479 2.91872 4.67648C2.91872 6.01523 3.76261 7.15688 4.94745 7.59851C2.23334 8.04132 0.367601 10.2476 0.00727976 13.0369C-0.0634824 13.5847 0.391472 14.0345 0.943805 14.0345H11.1297C11.6821 14.0345 12.1373 13.5845 12.0628 13.0372C11.6873 10.2796 9.76702 8.09169 7.08135 7.61433Z"/>
</mask>
<path fill-rule="evenodd" clip-rule="evenodd" d="M7.08135 7.61433C8.28895 7.18466 9.15352 6.03154 9.15352 4.67648C9.15352 2.95479 7.75781 1.55908 6.03612 1.55908C4.31443 1.55908 2.91872 2.95479 2.91872 4.67648C2.91872 6.01523 3.76261 7.15688 4.94745 7.59851C2.23334 8.04132 0.367601 10.2476 0.00727976 13.0369C-0.0634824 13.5847 0.391472 14.0345 0.943805 14.0345H11.1297C11.6821 14.0345 12.1373 13.5845 12.0628 13.0372C11.6873 10.2796 9.76702 8.09169 7.08135 7.61433Z" fill="#262038"/>
<path d="M7.08135 7.61433L6.57852 6.20112L1.24189 8.09991L6.81885 9.09118L7.08135 7.61433ZM4.94745 7.59851L5.18898 9.07893L10.7709 8.16825L5.47133 6.19297L4.94745 7.59851ZM0.00727976 13.0369L1.49492 13.2291L1.49492 13.2291L0.00727976 13.0369ZM12.0628 13.0372L10.5765 13.2396L10.5765 13.2396L12.0628 13.0372ZM7.65352 4.67648C7.65352 5.37718 7.20712 5.97746 6.57852 6.20112L7.58417 9.02754C9.37078 8.39186 10.6535 6.68589 10.6535 4.67648H7.65352ZM6.03612 3.05908C6.92938 3.05908 7.65352 3.78322 7.65352 4.67648H10.6535C10.6535 2.12636 8.58624 0.059082 6.03612 0.059082V3.05908ZM4.41872 4.67648C4.41872 3.78322 5.14285 3.05908 6.03612 3.05908V0.059082C3.486 0.059082 1.41872 2.12636 1.41872 4.67648H4.41872ZM5.47133 6.19297C4.85428 5.96298 4.41872 5.3687 4.41872 4.67648H1.41872C1.41872 6.66176 2.67093 8.35079 4.42356 9.00405L5.47133 6.19297ZM1.49492 13.2291C1.78386 10.9924 3.22827 9.39883 5.18898 9.07893L4.70592 6.11808C1.2384 6.68381 -1.04866 9.50291 -1.48036 12.8448L1.49492 13.2291ZM0.943805 12.5345C1.0751 12.5345 1.21389 12.5878 1.32317 12.7015C1.44075 12.8238 1.52203 13.0193 1.49492 13.2291L-1.48036 12.8448C-1.68399 14.4211 -0.375573 15.5345 0.943805 15.5345V12.5345ZM11.1297 12.5345H0.943805V15.5345H11.1297V12.5345ZM10.5765 13.2396C10.5474 13.0262 10.6297 12.8269 10.7489 12.7027C10.8592 12.5877 10.9987 12.5345 11.1297 12.5345V15.5345C12.4455 15.5345 13.765 14.421 13.5491 12.8349L10.5765 13.2396ZM6.81885 9.09118C8.79497 9.44243 10.2792 11.0561 10.5765 13.2396L13.5491 12.8349C13.0954 9.50302 10.7391 6.74096 7.34385 6.13748L6.81885 9.09118Z" fill="#B4A6E6" mask="url(#path-3-inside-2_1813_551)"/>
<mask id="path-5-inside-3_1813_551" fill="white">
<path fill-rule="evenodd" clip-rule="evenodd" d="M15.3377 7.76553C16.886 7.21422 17.9944 5.73558 17.9944 3.99806C17.9944 1.78999 16.2044 0 13.9963 0C11.7882 0 9.99824 1.78999 9.99824 3.99806C9.99824 5.71444 11.0798 7.17821 12.5986 7.745C8.9405 8.3421 6.48422 11.4372 6.20786 15.2727C6.18859 15.5401 6.28209 15.824 6.53013 15.9257C6.647 15.9736 6.77497 16 6.9091 16H20.9013C21.1959 16 21.4607 15.8726 21.6437 15.67C21.7615 15.5396 21.7907 15.3565 21.7757 15.1814C21.4536 11.43 18.9296 8.40484 15.3377 7.76553Z"/>
</mask>
<path fill-rule="evenodd" clip-rule="evenodd" d="M15.3377 7.76553C16.886 7.21422 17.9944 5.73558 17.9944 3.99806C17.9944 1.78999 16.2044 0 13.9963 0C11.7882 0 9.99824 1.78999 9.99824 3.99806C9.99824 5.71444 11.0798 7.17821 12.5986 7.745C8.9405 8.3421 6.48422 11.4372 6.20786 15.2727C6.18859 15.5401 6.28209 15.824 6.53013 15.9257C6.647 15.9736 6.77497 16 6.9091 16H20.9013C21.1959 16 21.4607 15.8726 21.6437 15.67C21.7615 15.5396 21.7907 15.3565 21.7757 15.1814C21.4536 11.43 18.9296 8.40484 15.3377 7.76553Z" fill="#262038"/>
<path d="M15.3377 7.76553L14.8346 6.35244L9.50359 8.25069L15.0749 9.24232L15.3377 7.76553ZM12.5986 7.745L12.8402 9.22541L18.4166 8.31518L13.123 6.33967L12.5986 7.745ZM6.20786 15.2727L4.71174 15.1649L4.71174 15.1649L6.20786 15.2727ZM6.53013 15.9257L5.96129 17.3136L5.9613 17.3136L6.53013 15.9257ZM21.6437 15.67L20.5305 14.6646L20.5305 14.6646L21.6437 15.67ZM21.7757 15.1814L20.2812 15.3097L20.2812 15.3097L21.7757 15.1814ZM16.4944 3.99806C16.4944 5.08135 15.804 6.00724 14.8346 6.35244L15.8409 9.17862C17.968 8.4212 19.4944 6.38981 19.4944 3.99806H16.4944ZM13.9963 1.5C15.3759 1.5 16.4944 2.61842 16.4944 3.99806H19.4944C19.4944 0.961567 17.0328 -1.5 13.9963 -1.5V1.5ZM11.4982 3.99806C11.4982 2.61842 12.6167 1.5 13.9963 1.5V-1.5C10.9598 -1.5 8.49824 0.961566 8.49824 3.99806H11.4982ZM13.123 6.33967C12.1718 5.98466 11.4982 5.06813 11.4982 3.99806H8.49824C8.49824 6.36076 9.98787 8.37176 12.0741 9.15033L13.123 6.33967ZM7.70398 15.3805C7.93909 12.1174 9.98001 9.69228 12.8402 9.22541L12.3569 6.26459C7.90099 6.99193 5.02934 10.7569 4.71174 15.1649L7.70398 15.3805ZM7.09896 14.5377C7.39793 14.6602 7.56593 14.8864 7.6398 15.0529C7.70604 15.2021 7.70845 15.3185 7.70398 15.3805L4.71174 15.1649C4.67248 15.7098 4.83039 16.8501 5.96129 17.3136L7.09896 14.5377ZM6.9091 14.5C6.97341 14.5 7.03844 14.5129 7.09895 14.5377L5.9613 17.3136C6.25557 17.4342 6.57652 17.5 6.9091 17.5V14.5ZM20.9013 14.5H6.9091V17.5H20.9013V14.5ZM20.5305 14.6646C20.6199 14.5656 20.754 14.5 20.9013 14.5V17.5C21.6378 17.5 22.3014 17.1797 22.7568 16.6754L20.5305 14.6646ZM20.2812 15.3097C20.2784 15.2767 20.2752 15.1995 20.301 15.0922C20.328 14.9795 20.3916 14.8184 20.5305 14.6646L22.7568 16.6754C23.2698 16.1075 23.3026 15.4303 23.2702 15.0531L20.2812 15.3097ZM15.0749 9.24232C17.9234 9.74932 20.0104 12.1558 20.2812 15.3097L23.2702 15.0531C22.8968 10.7043 19.9358 7.06037 15.6006 6.28874L15.0749 9.24232Z" fill="#B4A6E6" mask="url(#path-5-inside-3_1813_551)"/>
</svg>
