<svg width="30" height="18" viewBox="0 0 30 18" fill="none" xmlns="http://www.w3.org/2000/svg">
<mask id="path-1-inside-1_953_2398" fill="white">
<path fill-rule="evenodd" clip-rule="evenodd" d="M24.5835 8.25202C25.8926 7.78656 26.8299 6.53669 26.8299 5.06791C26.8299 3.20204 25.3173 1.68945 23.4514 1.68945C21.5855 1.68945 20.0729 3.20204 20.0729 5.06791C20.0729 6.51895 20.9877 7.75633 22.2721 8.23481C19.3034 8.71877 17.2711 11.1494 16.9071 14.2116C16.8419 14.7601 17.2963 15.2098 17.8486 15.2098H29.055C29.6074 15.2098 30.0619 14.7599 29.9932 14.2119C29.6138 11.1842 27.5211 8.77398 24.5835 8.25202Z"/>
</mask>
<path fill-rule="evenodd" clip-rule="evenodd" d="M24.5835 8.25202C25.8926 7.78656 26.8299 6.53669 26.8299 5.06791C26.8299 3.20204 25.3173 1.68945 23.4514 1.68945C21.5855 1.68945 20.0729 3.20204 20.0729 5.06791C20.0729 6.51895 20.9877 7.75633 22.2721 8.23481C19.3034 8.71877 17.2711 11.1494 16.9071 14.2116C16.8419 14.7601 17.2963 15.2098 17.8486 15.2098H29.055C29.6074 15.2098 30.0619 14.7599 29.9932 14.2119C29.6138 11.1842 27.5211 8.77398 24.5835 8.25202Z" fill="#262038"/>
<path d="M24.5835 8.25202L24.014 6.65026L17.9619 8.80211L24.2861 9.9258L24.5835 8.25202ZM22.2721 8.23481L22.5456 9.91266L28.8754 8.88075L22.8655 6.64177L22.2721 8.23481ZM16.9071 14.2116L18.5952 14.4123L18.5952 14.4123L16.9071 14.2116ZM29.9932 14.2119L28.3064 14.4233L28.3064 14.4233L29.9932 14.2119ZM25.1299 5.06791C25.1299 5.79496 24.6667 6.41818 24.014 6.65026L25.153 9.85378C27.1185 9.15494 28.5299 7.27843 28.5299 5.06791H25.1299ZM23.4514 3.38945C24.3784 3.38945 25.1299 4.14092 25.1299 5.06791H28.5299C28.5299 2.26315 26.2562 -0.0105469 23.4514 -0.0105469V3.38945ZM21.7729 5.06791C21.7729 4.14092 22.5244 3.38945 23.4514 3.38945V-0.0105469C20.6466 -0.0105469 18.3729 2.26315 18.3729 5.06791H21.7729ZM22.8655 6.64177C22.2248 6.40308 21.7729 5.78613 21.7729 5.06791H18.3729C18.3729 7.25178 19.7506 9.10959 21.6786 9.82785L22.8655 6.64177ZM18.5952 14.4123C18.8843 11.9806 20.4399 10.2559 22.5456 9.91266L21.9985 6.55696C18.167 7.1816 15.658 10.3182 15.219 14.0109L18.5952 14.4123ZM17.8486 13.5098C18.0351 13.5098 18.2249 13.5858 18.3702 13.7366C18.524 13.8961 18.6271 14.1443 18.5952 14.4123L15.219 14.0109C15.0174 15.7065 16.4196 16.9098 17.8486 16.9098V13.5098ZM29.055 13.5098H17.8486V16.9098H29.055V13.5098ZM28.3064 14.4233C28.2724 14.1515 28.3765 13.8993 28.5319 13.7378C28.6782 13.5856 28.8688 13.5098 29.055 13.5098V16.9098C30.4802 16.9098 31.8939 15.7065 31.68 14.0004L28.3064 14.4233ZM24.2861 9.9258C26.4112 10.3034 28.0093 12.0522 28.3064 14.4233L31.68 14.0004C31.2183 10.3162 28.6309 7.24455 24.8809 6.57824L24.2861 9.9258Z" fill="#B4A6E6" mask="url(#path-1-inside-1_953_2398)"/>
<mask id="path-3-inside-2_953_2398" fill="white">
<path fill-rule="evenodd" clip-rule="evenodd" d="M7.68321 8.25169C8.99182 7.78598 9.92868 6.53635 9.92868 5.06791C9.92868 3.20204 8.41609 1.68945 6.55023 1.68945C4.68436 1.68945 3.17177 3.20204 3.17177 5.06791C3.17177 6.51868 4.08622 7.75587 5.37016 8.23454C2.40208 8.71889 0.370223 11.1493 0.00624497 14.2112C-0.0589543 14.7596 0.395384 15.2094 0.947717 15.2094H12.1541C12.7065 15.2094 13.1611 14.7595 13.0924 14.2114C12.7129 11.184 10.6205 8.77388 7.68321 8.25169Z"/>
</mask>
<path fill-rule="evenodd" clip-rule="evenodd" d="M7.68321 8.25169C8.99182 7.78598 9.92868 6.53635 9.92868 5.06791C9.92868 3.20204 8.41609 1.68945 6.55023 1.68945C4.68436 1.68945 3.17177 3.20204 3.17177 5.06791C3.17177 6.51868 4.08622 7.75587 5.37016 8.23454C2.40208 8.71889 0.370223 11.1493 0.00624497 14.2112C-0.0589543 14.7596 0.395384 15.2094 0.947717 15.2094H12.1541C12.7065 15.2094 13.1611 14.7595 13.0924 14.2114C12.7129 11.184 10.6205 8.77388 7.68321 8.25169Z" fill="#262038"/>
<path d="M7.68321 8.25169L7.11323 6.6501L1.06652 8.80203L7.38565 9.92545L7.68321 8.25169ZM5.37016 8.23454L5.64395 9.91235L11.9687 8.88024L5.96401 6.64164L5.37016 8.23454ZM0.00624497 14.2112L1.69436 14.4118L1.69436 14.4118L0.00624497 14.2112ZM13.0924 14.2114L11.4056 14.4228L11.4056 14.4228L13.0924 14.2114ZM8.22868 5.06791C8.22868 5.79479 7.7657 6.41789 7.11323 6.6501L8.2532 9.85329C10.218 9.15407 11.6287 7.27791 11.6287 5.06791H8.22868ZM6.55023 3.38945C7.47721 3.38945 8.22868 4.14092 8.22868 5.06791H11.6287C11.6287 2.26315 9.35498 -0.0105469 6.55023 -0.0105469V3.38945ZM4.87177 5.06791C4.87177 4.14092 5.62324 3.38945 6.55023 3.38945V-0.0105469C3.74547 -0.0105469 1.47177 2.26315 1.47177 5.06791H4.87177ZM5.96401 6.64164C5.32351 6.40285 4.87177 5.78599 4.87177 5.06791H1.47177C1.47177 7.25137 2.84893 9.10889 4.7763 9.82744L5.96401 6.64164ZM1.69436 14.4118C1.98339 11.9804 3.53866 10.2559 5.64395 9.91235L5.09636 6.55673C1.2655 7.18188 -1.24295 10.3182 -1.68187 14.0105L1.69436 14.4118ZM0.947717 13.5094C1.13418 13.5094 1.32405 13.5854 1.46933 13.7361C1.6231 13.8956 1.72622 14.1438 1.69436 14.4118L-1.68187 14.0105C-1.88343 15.7061 -0.481241 16.9094 0.947717 16.9094V13.5094ZM12.1541 13.5094H0.947717V16.9094H12.1541V13.5094ZM11.4056 14.4228C11.3715 14.1511 11.4756 13.8989 11.631 13.7374C11.7773 13.5852 11.968 13.5094 12.1541 13.5094V16.9094C13.5793 16.9094 14.993 15.7061 14.7792 14L11.4056 14.4228ZM7.38565 9.92545C9.51058 10.3032 11.1084 12.0519 11.4056 14.4228L14.7792 14C14.3174 10.3161 11.7304 7.24454 7.98078 6.57794L7.38565 9.92545Z" fill="#B4A6E6" mask="url(#path-3-inside-2_953_2398)"/>
<mask id="path-5-inside-3_953_2398" fill="white">
<path fill-rule="evenodd" clip-rule="evenodd" d="M16.6306 8.41582C18.3085 7.81835 19.5097 6.21588 19.5097 4.33287C19.5097 1.93989 17.5698 0 15.1768 0C12.7839 0 10.844 1.93989 10.844 4.33287C10.844 6.19298 12.0161 7.77932 13.6621 8.39357C9.67631 9.04416 7.00705 12.4311 6.73153 16.6189C6.71333 16.8956 6.81592 17.1894 7.07718 17.2823C7.18197 17.3196 7.29481 17.3399 7.41239 17.3399H22.7439C23.0324 17.3399 23.2925 17.2176 23.475 17.0221C23.5966 16.8919 23.6278 16.7062 23.6139 16.5286C23.2925 12.428 20.5474 9.11298 16.6306 8.41582Z"/>
</mask>
<path fill-rule="evenodd" clip-rule="evenodd" d="M16.6306 8.41582C18.3085 7.81835 19.5097 6.21588 19.5097 4.33287C19.5097 1.93989 17.5698 0 15.1768 0C12.7839 0 10.844 1.93989 10.844 4.33287C10.844 6.19298 12.0161 7.77932 13.6621 8.39357C9.67631 9.04416 7.00705 12.4311 6.73153 16.6189C6.71333 16.8956 6.81592 17.1894 7.07718 17.2823C7.18197 17.3196 7.29481 17.3399 7.41239 17.3399H22.7439C23.0324 17.3399 23.2925 17.2176 23.475 17.0221C23.5966 16.8919 23.6278 16.7062 23.6139 16.5286C23.2925 12.428 20.5474 9.11298 16.6306 8.41582Z" fill="#262038"/>
<path d="M16.6306 8.41582L16.0603 6.81432L10.0186 8.96567L16.3327 10.0895L16.6306 8.41582ZM13.6621 8.39357L13.9359 10.0714L20.2558 9.03979L14.2564 6.80087L13.6621 8.39357ZM6.73153 16.6189L5.0352 16.5073V16.5073L6.73153 16.6189ZM7.07718 17.2823L6.50743 18.884L6.50744 18.884L7.07718 17.2823ZM23.475 17.0221L22.2323 15.862V15.862L23.475 17.0221ZM23.6139 16.5286L25.3087 16.3957L23.6139 16.5286ZM17.8097 4.33287C17.8097 5.47442 17.0823 6.45044 16.0603 6.81432L17.2009 10.0173C19.5348 9.18626 21.2097 6.95734 21.2097 4.33287H17.8097ZM15.1768 1.7C16.6309 1.7 17.8097 2.87877 17.8097 4.33287H21.2097C21.2097 1.00101 18.5087 -1.7 15.1768 -1.7V1.7ZM12.544 4.33287C12.544 2.87877 13.7227 1.7 15.1768 1.7V-1.7C11.845 -1.7 9.14397 1.00101 9.14397 4.33287H12.544ZM14.2564 6.80087C13.2536 6.42663 12.544 5.46049 12.544 4.33287H9.14397C9.14397 6.92547 10.7786 9.13201 13.0677 9.98628L14.2564 6.80087ZM8.42787 16.7305C8.66054 13.1938 10.8601 10.5734 13.9359 10.0714L13.3882 6.71578C8.49255 7.51488 5.35355 11.6684 5.0352 16.5073L8.42787 16.7305ZM7.64693 15.6806C8.02307 15.8144 8.24115 16.0894 8.33911 16.2985C8.42704 16.4863 8.43382 16.64 8.42787 16.7305L5.0352 16.5073C4.99634 17.098 5.18279 18.4128 6.50743 18.884L7.64693 15.6806ZM7.41239 15.6399C7.49166 15.6399 7.57138 15.6537 7.64692 15.6806L6.50744 18.884C6.79255 18.9854 7.09796 19.0399 7.41239 19.0399V15.6399ZM22.7439 15.6399H7.41239V19.0399H22.7439V15.6399ZM22.2323 15.862C22.3578 15.7276 22.5419 15.6399 22.7439 15.6399V19.0399C23.5229 19.0399 24.2271 18.7077 24.7177 18.1822L22.2323 15.862ZM21.9191 16.6614C21.9153 16.613 21.9128 16.5133 21.9462 16.3799C21.9813 16.2401 22.0614 16.0451 22.2323 15.862L24.7177 18.1822C25.3021 17.5561 25.3405 16.8014 25.3087 16.3957L21.9191 16.6614ZM16.3327 10.0895C19.4012 10.6357 21.6511 13.2417 21.9191 16.6614L25.3087 16.3957C24.934 11.6143 21.6937 7.59028 16.9285 6.74213L16.3327 10.0895Z" fill="#B4A6E6" mask="url(#path-5-inside-3_953_2398)"/>
</svg>
