<svg width="52" height="52" viewBox="0 0 52 52" fill="none" xmlns="http://www.w3.org/2000/svg">
<path d="M4.29139 6.96452L7.73132 4.0944V23.4309V23.9309H8.23132H9.91314H10.4131V23.4309V1.22119V0.721191H9.91314H8.23132H8.05409L7.91642 0.832815L3.65617 4.2871L3.47107 4.43718V4.67548V6.5806V7.64896L4.29139 6.96452Z" fill="#6347D9" stroke="#6347D9"/>
<path d="M11.9928 51.2795H12.4928V50.7795V47.6297H15.1283H15.6283V47.1297V45.726V45.226H15.1283H12.4928V38.677V38.177H11.9928H10.311H9.81101V38.677V45.226H3.59458L11.8769 28.7949L12.2424 28.0698H11.4305H9.64783H9.33994L9.20135 28.3448L0.553515 45.5009L0.5 45.6071V45.726V47.1297V47.6297H1H9.81101V50.7795V51.2795H10.311H11.9928Z" fill="#F2A52B" stroke="#F2A52B"/>
<path d="M19.6517 21.7117L19.5407 21.8491V22.0258V23.4295V23.9295H20.0407H32.4872H32.9872V23.4295V22.0258V21.5258H32.4872H23.1046L31.2573 11.4516C31.2573 11.4515 31.2574 11.4514 31.2575 11.4514C31.8731 10.6929 32.3109 9.99231 32.5916 9.24877C32.8734 8.50226 32.9872 7.73823 32.9872 6.86499C32.9872 5.00262 32.3596 3.40559 31.1775 2.27535C29.9973 1.14693 28.3123 0.529297 26.2799 0.529297C24.237 0.529297 22.5534 1.1997 21.3788 2.34892C20.2047 3.49769 19.575 5.09032 19.5778 6.86579L19.5786 7.36499H20.0778H21.7597H22.2597V6.86499C22.2597 5.42199 22.7351 4.46188 23.4332 3.85515C24.143 3.2383 25.1451 2.93307 26.2852 2.93307C27.6152 2.93307 28.6076 3.34312 29.2669 4.00685C29.9272 4.67158 30.3054 5.64311 30.3054 6.86499C30.3054 8.0146 29.9564 8.96765 29.0981 10.0118L29.0981 10.0118L29.0953 10.0152L19.6517 21.7117Z" fill="#01BFB3" stroke="#01BFB3"/>
<path d="M22.716 36.7507V30.4736H32.0204H32.5204V29.9736V28.5698V28.0698H32.0204H20.7305H20.2305V28.5698V39.9254V40.4254H20.7305H22.216H22.5766L22.6904 40.0832C23.0909 38.8795 24.4335 38.0841 26.4762 38.0841C27.3646 38.0841 28.0286 38.2662 28.5302 38.5533C29.0302 38.8396 29.3983 39.2469 29.6703 39.7451C30.2258 40.7623 30.3691 42.1348 30.3691 43.51C30.3691 45.2339 30.3084 46.9666 29.1039 48.1049C28.4605 48.7129 27.4072 49.0914 26.211 49.0914C24.9018 49.0914 24.0191 48.7764 23.4244 48.2509C22.8277 47.7237 22.4504 46.9224 22.2806 45.8062L22.2159 45.3814H21.7863H20.1044H19.5592L19.6063 45.9246C19.7469 47.546 20.3154 48.8877 21.3441 49.8615C22.4902 50.9817 24.2553 51.5001 26.211 51.5001C28.1906 51.5001 29.8417 50.9444 31.0799 49.7743C32.9337 48.0225 33.0509 45.5948 33.0509 43.515C33.0509 41.4178 32.8272 38.9069 30.9791 37.1605C29.8999 36.1407 28.441 35.6803 26.6725 35.6803C25.0974 35.6803 23.7666 36.0319 22.716 36.7507Z" fill="#6347D9" stroke="#6347D9"/>
<path d="M37.1351 17.5358H36.5994L36.6363 18.0703C36.7775 20.1119 37.5937 21.6537 38.9025 22.6757C40.1991 23.6882 41.9278 24.1509 43.8359 24.1509C45.8275 24.1509 47.6208 23.5776 48.9238 22.4395C50.2353 21.2938 51.0048 19.6145 51.0048 17.5044C51.0048 16.0179 50.7025 14.7337 50.0121 13.6992C49.5061 12.9409 48.8092 12.3435 47.9236 11.9016C48.6758 11.4484 49.261 10.8872 49.6857 10.2166C50.2856 9.26945 50.5379 8.14774 50.5379 6.89585C50.5379 4.97748 49.8556 3.36599 48.6463 2.23642C47.4406 1.11014 45.7514 0.5 43.7987 0.5C41.9881 0.5 40.3659 1.01902 39.1417 2.03462C37.9128 3.05404 37.1221 4.54352 36.9296 6.40833L36.8727 6.95968H37.4269H39.1087H39.5528L39.6052 6.51876C39.7426 5.36468 40.1783 4.47314 40.8571 3.86893C41.5353 3.26523 42.5063 2.90377 43.7987 2.90377C44.9646 2.90377 45.9754 3.2744 46.69 3.93873C47.3992 4.59815 47.8561 5.58315 47.8561 6.89585C47.8561 8.2509 47.5065 9.217 46.8664 9.84806C46.225 10.4803 45.2093 10.8579 43.7032 10.8579H43.3053H42.8053V11.3579V12.7616V13.2616H43.3053H43.7032C45.4288 13.2616 46.5607 13.6878 47.2635 14.3785C47.9648 15.0677 48.323 16.103 48.323 17.5044C48.323 18.8554 47.8298 19.9032 47.0454 20.6171C46.2554 21.3359 45.1349 21.7471 43.8359 21.7471C42.6698 21.7471 41.5959 21.4679 40.7941 20.875C40.0068 20.2928 39.4362 19.3756 39.315 17.9922L39.2751 17.5358H38.8169H37.1351Z" fill="#F2A52B" stroke="#F2A52B"/>
<path d="M44.3354 51.4701H44.8354V51.4497C46.7196 51.333 48.2349 50.5563 49.2981 49.3668C50.4474 48.081 51.0428 46.3428 51.0428 44.5077C51.0428 42.671 50.4462 40.9917 49.3082 39.7668C48.1655 38.5369 46.5098 37.801 44.4681 37.801C43.8607 37.801 43.2811 37.8642 42.7379 37.9848L47.5842 28.8032L47.9713 28.0698H47.142H45.4602H45.158L45.0175 28.3374L38.9746 39.8484L38.9746 39.8484L38.9725 39.8524C37.9887 41.7682 37.5963 43.161 37.5963 44.7283C37.5963 46.6426 38.1995 48.3355 39.3691 49.553C40.5418 50.7736 42.2394 51.4701 44.3354 51.4701ZM40.2834 44.638C40.2834 43.237 40.6909 42.1349 41.3722 41.3886C42.049 40.6473 43.0383 40.2098 44.3036 40.2098C45.6699 40.2098 46.6664 40.721 47.3289 41.5027C48.0005 42.295 48.3609 43.4045 48.3609 44.638C48.3609 46.0359 47.9446 47.1378 47.2537 47.8851C46.5665 48.6285 45.5665 49.0663 44.3036 49.0663C43.0412 49.0663 42.0516 48.6289 41.3741 47.8873C40.692 47.1408 40.2834 46.0387 40.2834 44.638Z" fill="#01BFB3" stroke="#01BFB3"/>
</svg>
