<svg width="50" height="50" viewBox="0 0 50 50" fill="none" xmlns="http://www.w3.org/2000/svg">
<path d="M45.3969 38.8693C44.1443 40.761 42.6145 42.5231 40.7972 44.0832C31.4693 52.101 17.5007 51.9559 8.34736 43.7359C-2.54112 33.9456 -2.74133 17.091 7.53624 7.04151C8.54244 6.06196 9.6051 5.18087 10.7191 4.40345C11.4532 3.89035 12.4645 4.14949 12.8444 4.9632L23.0347 26.7155L44.786 36.765C45.5817 37.133 45.8795 38.1333 45.3969 38.8641V38.8693Z" fill="#6347D9"/>
<path d="M46.722 32.4223C47.5229 32.7903 48.4726 32.3497 48.6985 31.4945C50.8752 23.2849 48.8474 14.158 42.5638 7.61207C41.727 6.74136 40.844 5.9432 39.9251 5.22279C39.2372 4.68378 38.231 4.91182 37.81 5.68406L27.9277 23.8084L46.722 32.4275V32.4223Z" fill="#01BFB3"/>
<path d="M32.7583 1.33035C27.8043 -0.369619 22.414 -0.442179 17.4138 1.12304C16.5924 1.38218 16.192 2.31509 16.5462 3.10288L24.6574 21.1028L33.5643 3.35165C33.9544 2.56904 33.5797 1.61022 32.7583 1.33035Z" fill="#F2A52B"/>
</svg>
