<?xml version="1.0" ?>

<!-- Uploaded to: SVG Repo, www.svgrepo.com, Generator: SVG Repo Mixer Tools -->
<svg fill="#ffffff" width="800px" height="800px" viewBox="0 0 64 64" xmlns="http://www.w3.org/2000/svg">

<g id="a"/>

<g id="b">

<path d="M49,9c-3.3086,0-6,2.6914-6,6,0,2.3083,1.312,4.3128,3.2276,5.3159-3.5641,7.8562-8.233,16.215-9.92,16.6255-.4014,.0967-.6064-.0068-.7539-.1221-.4111-.3242-1.3691-1.6338-1.3691-6.7979,0-5.1426,0-8.8584-3.4941-8.8584-3.3672,0-6.6689,5.873-8.3369,9.374-1.6422,3.4441-4.3723,10.2639-5.3785,12.8037-.6196-.2169-1.2823-.3408-1.975-.3408-3.3086,0-6,2.6914-6,6s2.6914,6,6,6,6-2.6914,6-6c0-1.8944-.8847-3.5836-2.2601-4.684,.9056-2.2868,3.7689-9.4583,5.4183-12.9176,2.3105-4.8486,4.9971-8.2354,6.5322-8.2354,1.2979,0,1.4941,1.5449,1.4941,6.8584,0,4.5664,.6777,7.2256,2.1338,8.3701,.6934,.5439,1.542,.7168,2.4619,.4932,3.3367-.8115,9.1843-13.1169,11.3668-17.9526,.2794,.04,.5627,.0678,.853,.0678,3.3086,0,6-2.6914,6-6s-2.6914-6-6-6ZM15,53c-2.2061,0-4-1.7939-4-4s1.7939-4,4-4,4,1.7939,4,4-1.7939,4-4,4ZM49,19c-2.2061,0-4-1.7939-4-4s1.7939-4,4-4,4,1.7939,4,4-1.7939,4-4,4Z"/>

</g>

</svg>
