<svg width="22" height="18" viewBox="0 0 22 18" fill="none" xmlns="http://www.w3.org/2000/svg">
<path d="M1 1.7251V7.17964H6.45455" stroke="#160F29" stroke-width="1.3" stroke-linecap="round" stroke-linejoin="round"/>
<path d="M20.9995 16.2705V10.8159H15.5449" stroke="#160F29" stroke-width="1.3" stroke-linecap="round" stroke-linejoin="round"/>
<path d="M18.7182 6.27027C18.2571 4.96734 17.4735 3.80245 16.4405 2.88428C15.4075 1.96611 14.1587 1.3246 12.8106 1.01959C11.4626 0.714585 10.0593 0.75603 8.73165 1.14006C7.40398 1.52409 6.19523 2.23819 5.21818 3.21572L1 7.17936M21 10.8157L16.7818 14.7794C15.8048 15.7569 14.596 16.471 13.2684 16.855C11.9407 17.239 10.5374 17.2805 9.18935 16.9755C7.84133 16.6705 6.59255 16.029 5.55952 15.1108C4.52648 14.1926 3.74288 13.0277 3.28182 11.7248" stroke="#160F29" stroke-width="1.3" stroke-linecap="round" stroke-linejoin="round"/>
</svg>
