<?xml version="1.0" standalone="no"?>
<!DOCTYPE svg PUBLIC "-//W3C//DTD SVG 20010904//EN"
 "http://www.w3.org/TR/2001/REC-SVG-20010904/DTD/svg10.dtd">
<svg version="1.0" xmlns="http://www.w3.org/2000/svg"
 width="672.000000pt" height="672.000000pt" viewBox="0 0 672.000000 672.000000"
 preserveAspectRatio="xMidYMid meet">
<metadata>
Created by potrace 1.14, written by Peter Selinger 2001-2017
</metadata>
<g transform="translate(0.000000,672.000000) scale(0.100000,-0.100000)"
fill="#000000" stroke="none">
<path d="M3098 6155 c-1 -2 -37 -6 -79 -9 -81 -6 -162 -14 -219 -22 -109 -15
-270 -43 -278 -48 -4 -2 -27 -7 -52 -10 -25 -3 -66 -13 -93 -21 -26 -8 -48
-14 -50 -14 -1 1 -22 -4 -47 -11 -25 -7 -52 -13 -60 -15 -24 -5 -323 -104
-345 -115 -11 -5 -45 -19 -75 -31 -82 -31 -413 -189 -460 -219 -8 -5 -58 -35
-110 -66 -152 -90 -421 -281 -506 -359 -6 -5 -40 -35 -75 -65 -87 -75 -322
-310 -395 -395 -32 -38 -61 -72 -64 -75 -3 -3 -34 -41 -68 -85 -35 -44 -71
-90 -80 -101 -42 -52 -43 -60 -14 -97 15 -19 34 -45 42 -57 17 -25 35 -46 146
-178 103 -122 110 -132 97 -140 -15 -10 -181 -205 -221 -261 -9 -12 -34 -45
-55 -72 l-38 -49 58 -77 c31 -43 60 -80 63 -83 3 -3 37 -43 75 -90 132 -162
366 -398 516 -520 24 -19 59 -48 80 -65 20 -16 47 -37 59 -45 12 -8 28 -20 34
-25 6 -6 54 -41 106 -78 52 -37 100 -71 107 -77 7 -5 14 -10 17 -10 2 0 54
-31 115 -69 100 -62 357 -195 486 -252 106 -46 393 -150 455 -164 8 -2 49 -14
90 -25 41 -12 84 -23 95 -25 11 -2 38 -8 60 -14 50 -12 77 -18 205 -42 84 -16
179 -29 320 -44 262 -29 676 -24 935 11 17 2 50 6 75 9 25 3 56 8 70 11 14 2
37 7 53 9 15 3 39 7 55 10 15 3 36 8 47 10 11 2 43 8 70 14 28 6 59 12 71 15
11 2 43 11 70 19 27 8 51 14 54 14 3 0 32 8 65 18 33 9 67 19 75 20 46 11 390
141 475 180 166 77 300 147 387 202 21 12 42 23 48 23 5 0 10 4 10 8 0 5 12
14 27 21 53 24 334 220 376 263 10 10 21 18 25 18 4 0 23 15 43 33 19 17 62
55 95 82 111 94 355 344 444 455 19 24 49 60 65 79 17 20 33 40 37 46 4 5 18
24 31 40 68 87 70 93 50 119 -10 13 -25 34 -33 46 -8 12 -19 28 -25 34 -5 6
-37 45 -70 86 -80 100 -96 119 -120 144 -11 12 -29 31 -39 43 -20 24 -19 24
65 112 24 25 171 210 208 262 l32 46 -48 64 c-167 220 -439 513 -608 657 -27
23 -57 48 -65 56 -25 23 -235 184 -262 201 -9 6 -49 32 -90 60 -40 27 -85 56
-99 65 -14 8 -48 28 -75 44 -27 16 -60 36 -74 45 -102 63 -510 253 -595 277
-5 1 -50 17 -100 34 -85 30 -316 98 -360 106 -11 2 -74 15 -140 29 -66 14
-136 27 -155 30 -41 5 -104 14 -140 20 -14 3 -54 7 -90 11 -36 3 -76 8 -90 11
-28 6 -616 14 -622 8z m522 -249 c105 -9 176 -16 215 -20 17 -2 55 -7 85 -10
30 -4 64 -10 75 -13 11 -3 31 -7 45 -8 37 -4 85 -14 180 -36 47 -11 103 -24
125 -29 22 -5 59 -16 83 -24 23 -8 43 -15 45 -14 7 4 259 -84 357 -124 109
-45 374 -174 448 -219 35 -21 66 -39 69 -39 15 0 412 -278 443 -310 3 -3 34
-30 70 -60 138 -116 337 -315 445 -445 109 -130 105 -115 48 -182 -26 -31 -57
-68 -68 -82 -37 -44 -67 -72 -75 -69 -5 2 -35 28 -67 58 -113 104 -256 225
-323 270 -19 13 -37 27 -40 31 -3 3 -61 43 -130 89 -69 45 -137 91 -152 101
-15 10 -29 19 -31 19 -2 0 -52 27 -111 60 -149 83 -334 171 -461 219 -33 13
-73 29 -90 36 -16 7 -41 16 -55 20 -14 3 -34 10 -45 15 -20 9 -205 67 -241 75
-10 2 -37 9 -59 15 -56 16 -203 49 -245 56 -19 3 -44 8 -54 11 -11 3 -34 7
-50 9 -17 1 -44 5 -61 8 -32 6 -69 11 -150 22 -232 30 -676 35 -885 9 -19 -2
-64 -7 -100 -11 -36 -4 -74 -8 -85 -10 -11 -2 -38 -6 -60 -9 -22 -3 -51 -8
-65 -10 -14 -3 -40 -8 -59 -11 -32 -5 -41 -7 -93 -19 -48 -11 -74 -16 -103
-22 -16 -3 -38 -9 -47 -14 -10 -5 -18 -7 -18 -5 0 3 -11 1 -26 -4 -14 -6 -39
-12 -56 -15 -17 -3 -104 -30 -192 -59 -245 -81 -478 -183 -685 -298 -57 -32
-106 -58 -108 -58 -2 0 -16 -8 -31 -19 -15 -10 -74 -49 -131 -86 -99 -64 -308
-215 -341 -246 -9 -8 -45 -39 -80 -69 -36 -30 -74 -63 -86 -75 -93 -91 -92
-90 -115 -69 -32 28 -169 193 -169 204 0 4 3 10 8 12 4 2 27 28 52 58 88 108
106 127 195 220 183 191 429 400 615 521 132 87 201 129 210 129 6 0 10 3 10
8 0 4 10 12 23 18 12 6 83 42 157 81 116 60 195 96 345 158 17 7 48 19 70 26
22 7 45 16 50 20 11 7 63 21 67 17 2 -1 13 4 26 11 13 7 31 14 40 17 9 2 64
17 122 34 58 17 114 32 125 34 11 2 50 11 88 20 37 9 82 18 100 21 151 25 143
24 257 40 84 11 115 14 230 20 63 4 116 8 117 9 5 4 331 -3 403 -8z m65 -800
c17 -2 62 -7 100 -11 39 -3 79 -8 90 -10 180 -27 321 -55 464 -91 74 -19 159
-44 190 -55 31 -11 66 -22 79 -25 20 -4 129 -46 317 -122 114 -46 534 -277
589 -324 6 -5 56 -41 111 -80 55 -40 102 -75 105 -78 3 -3 39 -32 80 -65 84
-66 210 -182 224 -203 5 -9 4 -17 -2 -21 -5 -3 -45 -38 -88 -77 -72 -65 -127
-112 -162 -139 -7 -5 -21 -17 -31 -26 -40 -36 -236 -172 -352 -245 -315 -197
-755 -384 -1084 -460 -105 -24 -249 -55 -275 -59 -14 -2 -38 -6 -55 -9 -16 -3
-50 -7 -75 -11 -25 -3 -63 -8 -85 -12 -22 -3 -56 -7 -75 -8 -19 -2 -78 -6
-130 -10 -230 -18 -600 -4 -810 29 -14 2 -45 7 -70 10 -25 4 -76 13 -115 21
-38 8 -81 16 -95 19 -53 9 -168 38 -235 58 -38 11 -77 22 -85 23 -8 2 -15 4
-15 5 0 1 -7 3 -15 5 -32 7 -201 69 -305 112 -143 58 -178 75 -187 87 -4 6 -8
7 -8 3 0 -5 -42 14 -92 41 -169 89 -257 141 -397 236 -57 39 -111 76 -120 81
-9 6 -18 12 -21 15 -3 3 -39 32 -80 64 -86 67 -158 128 -243 207 l-61 56 30
28 c16 15 55 50 87 79 33 28 73 64 90 79 18 16 57 47 87 70 30 23 57 44 60 47
30 32 379 260 398 260 6 0 12 4 14 9 7 19 432 224 442 213 3 -3 6 0 6 6 0 7
10 12 23 12 13 0 27 4 33 10 8 8 186 73 234 86 8 2 62 17 120 34 130 38 351
87 476 105 130 18 172 23 288 30 44 3 81 7 83 9 5 4 511 -3 548 -8z m-3096
-1332 c30 -27 62 -56 70 -64 9 -8 52 -44 96 -80 44 -35 81 -68 83 -72 2 -5 8
-8 13 -8 7 0 123 -83 139 -100 11 -12 230 -150 320 -201 184 -106 502 -251
670 -306 25 -8 52 -17 60 -20 8 -3 20 -7 25 -8 6 -1 31 -10 57 -19 44 -14 251
-70 302 -80 11 -3 55 -12 96 -21 41 -10 91 -19 110 -21 36 -4 75 -11 75 -14 0
-1 16 -3 35 -5 19 -2 51 -6 70 -9 62 -8 153 -18 205 -23 83 -7 595 -11 595 -4
0 3 26 6 58 7 65 1 169 11 257 24 33 5 78 12 100 15 22 2 63 9 90 15 28 5 64
12 80 15 17 3 41 7 55 10 14 3 36 8 49 11 14 3 58 14 100 26 41 11 80 21 86
23 5 1 17 4 25 7 8 3 62 20 120 38 209 64 541 207 730 315 36 21 81 46 100 57
19 11 87 55 150 97 63 42 120 78 125 80 6 2 12 7 15 10 3 3 39 31 81 62 41 31
82 64 91 73 9 9 19 16 22 16 3 0 14 8 24 18 10 9 38 33 63 54 24 20 76 66 114
102 l70 66 42 -48 c66 -73 67 -74 107 -124 25 -32 35 -52 29 -61 -8 -15 -58
-76 -128 -156 -59 -68 -311 -318 -379 -376 -390 -332 -818 -576 -1276 -729
-141 -47 -257 -82 -300 -90 -14 -3 -56 -13 -95 -22 -74 -16 -75 -17 -200 -39
-77 -13 -113 -18 -220 -30 -27 -3 -66 -8 -85 -11 -26 -3 -308 -14 -415 -16
-32 0 -267 13 -296 17 -19 3 -61 7 -94 10 -56 5 -100 12 -100 15 0 1 -18 3
-40 5 -21 3 -53 7 -70 10 -70 11 -91 16 -115 21 -14 3 -36 8 -50 11 -164 30
-492 133 -690 218 -140 59 -381 180 -431 216 -16 11 -29 17 -29 14 0 -4 -18 8
-40 25 -22 17 -40 29 -40 26 0 -3 -21 9 -47 27 -27 18 -79 55 -118 82 -257
177 -532 430 -756 695 -67 79 -73 90 -57 108 8 9 24 28 34 40 25 31 40 49 94
110 43 51 44 51 65 33 11 -10 44 -40 74 -67z"/>
<path d="M152 2512 l-60 -107 86 -48 c48 -27 107 -61 132 -75 25 -13 77 -43
115 -66 39 -22 72 -41 75 -41 3 0 21 -10 40 -21 34 -21 349 -200 460 -261 30
-17 130 -73 221 -125 91 -52 172 -98 180 -101 8 -4 28 -15 44 -26 30 -18 215
-123 368 -208 43 -24 95 -54 115 -66 20 -13 48 -28 62 -35 14 -7 34 -18 45
-25 11 -7 52 -30 90 -51 39 -22 131 -74 205 -116 139 -79 195 -111 278 -156
26 -15 52 -30 57 -34 6 -4 35 -21 65 -37 30 -16 71 -39 90 -50 19 -11 78 -44
130 -73 52 -29 107 -62 123 -72 15 -11 27 -16 27 -13 0 3 12 -2 28 -13 15 -10
73 -45 128 -76 l102 -57 51 31 c29 16 56 30 61 30 6 0 10 4 10 9 0 5 16 15 35
21 19 6 35 16 35 21 0 5 6 9 13 9 7 0 29 11 50 25 20 14 37 22 37 18 0 -4 4
-3 8 3 4 5 34 25 67 44 33 18 75 42 94 52 19 11 55 31 80 45 25 13 62 34 81
45 19 11 55 32 80 46 233 130 369 207 392 223 15 11 29 19 32 19 3 0 31 15 63
34 32 18 81 46 108 61 28 15 100 55 160 90 61 34 131 74 157 88 25 14 104 59
175 99 70 41 153 88 183 104 30 16 57 31 60 34 3 4 23 15 45 27 22 11 157 87
300 168 143 81 285 162 315 178 30 17 88 50 128 74 41 24 75 43 76 43 2 0 43
23 92 51 49 28 118 67 154 87 36 20 77 43 92 52 l27 16 -44 79 c-25 43 -45 82
-45 87 0 4 -4 8 -8 8 -5 0 -13 9 -18 19 -8 18 -15 16 -104 -35 -52 -31 -131
-76 -175 -100 -44 -25 -87 -49 -95 -54 -18 -11 -179 -102 -265 -150 -112 -62
-130 -72 -310 -175 -99 -56 -274 -155 -390 -220 -115 -65 -235 -132 -265 -150
-47 -28 -89 -51 -195 -109 -11 -6 -22 -13 -25 -17 -3 -3 -21 -13 -40 -22 -19
-10 -48 -26 -65 -36 -16 -10 -52 -30 -80 -46 -27 -15 -77 -43 -110 -62 -33
-19 -68 -37 -77 -40 -10 -3 -18 -8 -18 -12 0 -4 -16 -13 -35 -21 -19 -8 -35
-17 -35 -21 0 -4 -8 -9 -17 -12 -10 -3 -54 -26 -98 -52 -44 -25 -91 -51 -105
-58 -14 -6 -27 -14 -30 -18 -3 -3 -34 -21 -70 -41 -36 -19 -170 -95 -299 -168
-129 -73 -240 -133 -245 -133 -6 0 -75 36 -154 81 -78 45 -147 82 -152 82 -6
0 -10 5 -10 10 0 6 -4 10 -8 10 -5 0 -157 84 -338 186 -181 102 -351 198 -379
213 -27 14 -52 28 -55 32 -3 3 -32 20 -65 39 -33 18 -76 42 -95 53 -19 11 -55
31 -80 45 -43 24 -321 181 -405 230 -22 12 -51 28 -65 35 -14 6 -27 14 -30 17
-3 3 -35 21 -72 40 -37 19 -68 38 -68 43 0 4 -5 7 -11 7 -6 0 -49 23 -96 50
-47 28 -88 50 -93 50 -4 0 -13 7 -20 15 -6 8 -15 14 -18 12 -4 -1 -38 17 -77
39 -38 23 -90 52 -115 66 -25 14 -85 48 -134 77 -49 28 -91 51 -93 51 -2 0
-20 10 -41 23 -20 13 -62 37 -92 54 -30 16 -107 59 -170 95 -63 36 -136 77
-161 91 l-46 25 -61 -106z"/>
</g>
</svg>
