<svg width="18" height="18" viewBox="0 0 18 18" fill="none" xmlns="http://www.w3.org/2000/svg">
<line x1="3.95959" y1="4.69434" x2="14.0405" y2="4.69434" stroke="#B4A6E6" stroke-width="1.5" stroke-linecap="round" stroke-linejoin="round"/>
<line x1="3.95959" y1="8.60547" x2="7.64055" y2="8.60547" stroke="#B4A6E6" stroke-width="1.5" stroke-linecap="round" stroke-linejoin="round"/>
<line x1="3.95959" y1="12.5166" x2="6.72626" y2="12.5166" stroke="#B4A6E6" stroke-width="1.5" stroke-linecap="round" stroke-linejoin="round"/>
<path d="M17 10.4775V2C17 1.44772 16.5523 1 16 1H2C1.44772 1 1 1.44772 1 2V16C1 16.5523 1.44772 17 2 17H10.3818" stroke="#B4A6E6" stroke-width="1.5" stroke-linecap="round"/>
<path d="M12.0096 13.8762C13.3351 13.8762 14.4096 12.7846 14.4096 11.4381C14.4096 10.0916 13.3351 9 12.0096 9C10.6841 9 9.60962 10.0916 9.60962 11.4381C9.60962 12.7846 10.6841 13.8762 12.0096 13.8762Z" stroke="#B4A6E6" stroke-width="1.5" stroke-linecap="round" stroke-linejoin="round"/>
<path d="M16.7714 16.314L13.7238 13.1902" stroke="#B4A6E6" stroke-width="1.5" stroke-linecap="round" stroke-linejoin="round"/>
</svg>
