<svg width="18" height="18" viewBox="0 0 18 18" fill="none" xmlns="http://www.w3.org/2000/svg">
<path d="M17.33 0.669104C17.1408 0.481271 16.9035 0.349225 16.6442 0.287478C16.3849 0.225731 16.1135 0.236674 15.86 0.319103L1.23 5.1991C0.958673 5.28508 0.718908 5.44953 0.540989 5.6717C0.363071 5.89386 0.254981 6.16376 0.23037 6.44732C0.205759 6.73088 0.265732 7.01538 0.402714 7.26487C0.539696 7.51436 0.747543 7.71767 1 7.8491L7.07 10.8491L10.07 16.9391C10.1906 17.1775 10.3751 17.3776 10.6029 17.5171C10.8307 17.6566 11.0929 17.73 11.36 17.7291H11.46C11.7461 17.708 12.0192 17.6014 12.2439 17.4231C12.4686 17.2447 12.6345 17.0029 12.72 16.7291L17.67 2.1391C17.7584 1.88704 17.7734 1.61505 17.7132 1.3548C17.653 1.09455 17.5201 0.856761 17.33 0.669104ZM1.85 6.5791L14.62 2.3191L7.53 9.4091L1.85 6.5791ZM11.43 16.1491L8.59 10.4691L15.68 3.3791L11.43 16.1491Z" fill="#F8F8F8"/>
</svg>
