<svg width="661" height="165" viewBox="0 0 661 165" fill="none" xmlns="http://www.w3.org/2000/svg">
<path d="M294.066 42.1931C293.552 43.0964 292.996 43.7632 292.397 44.1934C291.841 44.5805 291.134 44.7741 290.279 44.7741C289.38 44.7741 288.396 44.4515 287.326 43.8062C286.299 43.118 285.058 42.3652 283.603 41.5478C282.149 40.7305 280.437 39.9992 278.469 39.354C276.543 38.6657 274.254 38.3216 271.601 38.3216C269.205 38.3216 267.108 38.6227 265.311 39.2249C263.514 39.7841 261.995 40.58 260.754 41.6124C259.556 42.6448 258.657 43.8923 258.058 45.3548C257.459 46.7744 257.159 48.3445 257.159 50.0652C257.159 52.2591 257.758 54.0873 258.957 55.5499C260.198 57.0124 261.824 58.2599 263.835 59.2923C265.846 60.3248 268.135 61.2496 270.702 62.0669C273.27 62.8843 275.901 63.7661 278.597 64.7125C281.293 65.6158 283.924 66.6913 286.492 67.9388C289.059 69.1432 291.348 70.6918 293.36 72.5846C295.371 74.4343 296.975 76.7142 298.173 79.4243C299.414 82.1344 300.035 85.4252 300.035 89.2967C300.035 93.5124 299.307 97.4699 297.852 101.169C296.44 104.826 294.344 108.031 291.562 110.784C288.824 113.494 285.465 115.645 281.485 117.236C277.506 118.785 272.949 119.559 267.814 119.559C264.862 119.559 261.952 119.258 259.085 118.656C256.218 118.097 253.458 117.279 250.805 116.204C248.195 115.128 245.735 113.838 243.424 112.332C241.113 110.827 239.059 109.149 237.262 107.299L242.333 98.9755C242.761 98.3733 243.317 97.8786 244.002 97.4914C244.686 97.0613 245.414 96.8462 246.184 96.8462C247.254 96.8462 248.409 97.2979 249.65 98.2012C250.891 99.0616 252.367 100.029 254.079 101.105C255.79 102.18 257.78 103.17 260.048 104.073C262.358 104.933 265.118 105.364 268.328 105.364C273.248 105.364 277.057 104.202 279.752 101.879C282.448 99.5132 283.796 96.1364 283.796 91.7487C283.796 89.2967 283.176 87.2964 281.935 85.7478C280.737 84.1992 279.132 82.9087 277.121 81.8763C275.11 80.8008 272.82 79.8975 270.253 79.1662C267.686 78.4349 265.076 77.6391 262.423 76.7788C259.77 75.9184 257.159 74.886 254.592 73.6815C252.025 72.4771 249.735 70.9069 247.724 68.9712C245.713 67.0354 244.087 64.6265 242.846 61.7443C241.648 58.8192 241.049 55.2272 241.049 50.9686C241.049 47.5702 241.712 44.2579 243.039 41.0316C244.408 37.8054 246.376 34.9447 248.944 32.4497C251.511 29.9548 254.678 27.9545 258.443 26.4489C262.209 24.9433 266.53 24.1905 271.408 24.1905C276.885 24.1905 281.935 25.0508 286.556 26.7715C291.177 28.4922 295.114 30.9011 298.366 33.9984L294.066 42.1931Z" fill="white"/>
<path d="M328.773 52.3236V118.527H312.856V52.3236H328.773ZM330.956 33.0305C330.956 34.407 330.678 35.6975 330.121 36.902C329.565 38.1065 328.816 39.1604 327.875 40.0638C326.976 40.9671 325.906 41.6984 324.666 42.2576C323.425 42.7738 322.098 43.0319 320.686 43.0319C319.317 43.0319 318.012 42.7738 316.771 42.2576C315.573 41.6984 314.524 40.9671 313.626 40.0638C312.727 39.1604 312 38.1065 311.444 36.902C310.93 35.6975 310.673 34.407 310.673 33.0305C310.673 31.6109 310.93 30.2774 311.444 29.0299C312 27.7824 312.727 26.707 313.626 25.8036C314.524 24.9003 315.573 24.1905 316.771 23.6743C318.012 23.1151 319.317 22.8354 320.686 22.8354C322.098 22.8354 323.425 23.1151 324.666 23.6743C325.906 24.1905 326.976 24.9003 327.875 25.8036C328.816 26.707 329.565 27.7824 330.121 29.0299C330.678 30.2774 330.956 31.6109 330.956 33.0305Z" fill="white"/>
<path d="M369.005 83.812C370.973 83.812 372.685 83.5539 374.14 83.0377C375.595 82.4785 376.793 81.7257 377.734 80.7793C378.718 79.833 379.446 78.693 379.916 77.3595C380.43 76.026 380.687 74.5634 380.687 72.9717C380.687 69.7025 379.703 67.1214 377.734 65.2287C375.809 63.2929 372.899 62.325 369.005 62.325C365.111 62.325 362.18 63.2929 360.212 65.2287C358.286 67.1214 357.324 69.7025 357.324 72.9717C357.324 74.5204 357.559 75.9614 358.03 77.295C358.543 78.6285 359.27 79.7899 360.212 80.7793C361.196 81.7257 362.415 82.4785 363.87 83.0377C365.368 83.5539 367.08 83.812 369.005 83.812ZM386.913 121.495C386.913 120.204 386.527 119.15 385.757 118.333C384.987 117.516 383.939 116.892 382.612 116.462C381.286 115.989 379.724 115.645 377.927 115.43C376.172 115.214 374.29 115.064 372.279 114.978C370.31 114.849 368.256 114.741 366.117 114.655C364.02 114.569 361.966 114.397 359.955 114.139C358.201 115.128 356.767 116.29 355.655 117.623C354.585 118.957 354.05 120.506 354.05 122.269C354.05 123.431 354.328 124.506 354.884 125.496C355.484 126.528 356.404 127.41 357.644 128.141C358.928 128.872 360.576 129.432 362.587 129.819C364.598 130.249 367.058 130.464 369.968 130.464C372.92 130.464 375.466 130.227 377.606 129.754C379.745 129.324 381.5 128.7 382.869 127.883C384.281 127.109 385.308 126.162 385.95 125.044C386.592 123.968 386.913 122.785 386.913 121.495ZM402.702 54.582V60.5183C402.702 62.4111 401.568 63.5725 399.3 64.0027L393.395 65.0996C394.294 67.3795 394.743 69.8745 394.743 72.5846C394.743 75.8539 394.08 78.8221 392.753 81.4891C391.47 84.1132 389.673 86.35 387.362 88.1998C385.051 90.0495 382.313 91.4906 379.146 92.523C376.023 93.5124 372.642 94.0071 369.005 94.0071C367.721 94.0071 366.481 93.9425 365.282 93.8135C364.084 93.6844 362.908 93.5124 361.752 93.2973C359.698 94.5448 358.671 95.9428 358.671 97.4914C358.671 98.825 359.27 99.8144 360.469 100.46C361.709 101.062 363.335 101.492 365.347 101.75C367.358 102.008 369.647 102.18 372.214 102.266C374.782 102.309 377.413 102.438 380.109 102.653C382.805 102.869 385.436 103.256 388.004 103.815C390.571 104.331 392.86 105.17 394.872 106.331C396.883 107.493 398.487 109.085 399.685 111.106C400.926 113.085 401.547 115.645 401.547 118.785C401.547 121.71 400.819 124.549 399.364 127.302C397.952 130.055 395.877 132.507 393.139 134.658C390.443 136.809 387.105 138.53 383.126 139.82C379.189 141.154 374.696 141.82 369.647 141.82C364.683 141.82 360.362 141.326 356.682 140.336C353.002 139.39 349.942 138.099 347.503 136.465C345.064 134.873 343.246 133.023 342.048 130.916C340.849 128.808 340.25 126.614 340.25 124.334C340.25 121.237 341.17 118.656 343.01 116.591C344.893 114.483 347.46 112.805 350.712 111.558C348.958 110.655 347.567 109.45 346.54 107.945C345.514 106.439 345 104.46 345 102.008C345 101.019 345.171 100.008 345.514 98.9755C345.899 97.9001 346.434 96.8462 347.118 95.8138C347.846 94.7814 348.744 93.8135 349.814 92.9101C350.884 91.9637 352.146 91.1249 353.601 90.3936C350.263 88.5869 347.632 86.178 345.706 83.1668C343.823 80.1556 342.882 76.6282 342.882 72.5846C342.882 69.3153 343.524 66.3686 344.808 63.7446C346.134 61.0776 347.953 58.8192 350.263 56.9694C352.617 55.0767 355.377 53.6356 358.543 52.6462C361.752 51.6568 365.24 51.1621 369.005 51.1621C371.829 51.1621 374.482 51.4633 376.964 52.0655C379.446 52.6247 381.714 53.4635 383.768 54.582H402.702Z" fill="white"/>
<path d="M468.37 104.202V118.527H414.006V25.2229H431.271V104.202H468.37Z" fill="white"/>
<path d="M517.235 77.8112C517.235 75.7463 516.936 73.8106 516.337 72.0039C515.781 70.1541 514.925 68.541 513.769 67.1645C512.614 65.7879 511.138 64.7125 509.341 63.9382C507.586 63.1209 505.532 62.7122 503.179 62.7122C498.6 62.7122 494.985 64.0242 492.332 66.6483C489.722 69.2723 488.053 72.9933 487.325 77.8112H517.235ZM487.004 87.4255C487.261 90.8238 487.86 93.7705 488.802 96.2654C489.743 98.7174 490.984 100.761 492.524 102.395C494.065 103.987 495.883 105.191 497.98 106.009C500.12 106.783 502.473 107.17 505.04 107.17C507.608 107.17 509.811 106.869 511.651 106.267C513.534 105.665 515.16 104.998 516.529 104.267C517.941 103.535 519.161 102.869 520.188 102.266C521.258 101.664 522.285 101.363 523.269 101.363C524.595 101.363 525.579 101.858 526.221 102.847L530.778 108.654C529.024 110.719 527.056 112.461 524.873 113.881C522.691 115.257 520.402 116.376 518.006 117.236C515.652 118.054 513.235 118.634 510.753 118.978C508.314 119.323 505.939 119.495 503.628 119.495C499.05 119.495 494.792 118.742 490.856 117.236C486.919 115.688 483.496 113.429 480.586 110.461C477.676 107.45 475.387 103.75 473.718 99.3627C472.049 94.9319 471.215 89.8129 471.215 84.0056C471.215 79.4888 471.942 75.2517 473.397 71.2941C474.852 67.2935 476.927 63.8306 479.623 60.9055C482.362 57.9373 485.678 55.5929 489.572 53.8722C493.509 52.1515 497.937 51.2912 502.858 51.2912C507.009 51.2912 510.838 51.9579 514.347 53.2915C517.856 54.625 520.873 56.5823 523.397 59.1633C525.922 61.7013 527.89 64.8415 529.302 68.584C530.757 72.2835 531.484 76.5207 531.484 81.2955C531.484 83.7045 531.228 85.3391 530.714 86.1995C530.201 87.0168 529.217 87.4255 527.762 87.4255H487.004Z" fill="white"/>
<path d="M558.208 60.4538C559.535 59.1203 560.925 57.8943 562.38 56.7759C563.878 55.6144 565.44 54.6465 567.066 53.8722C568.735 53.0549 570.51 52.4311 572.393 52.001C574.276 51.5278 576.33 51.2912 578.555 51.2912C582.149 51.2912 585.337 51.9149 588.118 53.1624C590.9 54.3669 593.21 56.0876 595.05 58.3245C596.933 60.5183 598.345 63.1639 599.286 66.2611C600.271 69.3153 600.763 72.6921 600.763 76.3916V118.527H584.909V76.3916C584.909 72.348 583.989 69.2293 582.149 67.0354C580.309 64.7985 577.506 63.6801 573.741 63.6801C571.002 63.6801 568.435 64.3038 566.039 65.5513C563.643 66.7988 561.375 68.498 559.235 70.6488V118.527H543.382V52.3236H553.073C555.127 52.3236 556.475 53.2915 557.117 55.2272L558.208 60.4538Z" fill="white"/>
<path d="M656.02 65.2287C655.592 65.917 655.142 66.4117 654.672 66.7128C654.201 66.9709 653.602 67.0999 652.874 67.0999C652.104 67.0999 651.27 66.8848 650.371 66.4547C649.515 66.0245 648.51 65.5513 647.355 65.0351C646.199 64.4759 644.873 63.9812 643.375 63.551C641.92 63.1209 640.187 62.9058 638.176 62.9058C635.053 62.9058 632.592 63.5725 630.795 64.9061C629.041 66.2396 628.163 67.9818 628.163 70.1326C628.163 71.5522 628.613 72.7567 629.511 73.7461C630.453 74.6924 631.672 75.5313 633.17 76.2626C634.71 76.9938 636.443 77.6606 638.369 78.2628C640.294 78.8221 642.241 79.4458 644.21 80.1341C646.221 80.8223 648.189 81.6182 650.115 82.5215C652.04 83.3819 653.752 84.5003 655.249 85.8768C656.79 87.2104 658.009 88.8235 658.908 90.7163C659.849 92.609 660.32 94.8889 660.32 97.556C660.32 100.739 659.742 103.686 658.587 106.396C657.474 109.063 655.806 111.386 653.581 113.365C651.355 115.3 648.596 116.828 645.301 117.946C642.049 119.021 638.283 119.559 634.004 119.559C631.736 119.559 629.511 119.344 627.329 118.914C625.19 118.527 623.114 117.968 621.103 117.236C619.135 116.505 617.295 115.645 615.583 114.655C613.914 113.666 612.438 112.59 611.155 111.429L614.813 105.364C615.284 104.632 615.84 104.073 616.482 103.686C617.124 103.299 617.937 103.105 618.921 103.105C619.905 103.105 620.825 103.385 621.681 103.944C622.579 104.503 623.606 105.105 624.762 105.751C625.917 106.396 627.265 106.998 628.805 107.557C630.389 108.117 632.378 108.396 634.774 108.396C636.657 108.396 638.262 108.181 639.588 107.751C640.958 107.278 642.07 106.676 642.926 105.944C643.825 105.213 644.466 104.374 644.851 103.428C645.279 102.438 645.493 101.427 645.493 100.395C645.493 98.8465 645.023 97.5775 644.081 96.5881C643.183 95.5987 641.963 94.7383 640.423 94.0071C638.925 93.2758 637.192 92.6305 635.224 92.0713C633.298 91.4691 631.308 90.8238 629.255 90.1355C627.243 89.4473 625.254 88.6514 623.285 87.7481C621.36 86.8017 619.627 85.6187 618.086 84.1992C616.589 82.7796 615.369 81.0374 614.428 78.9726C613.529 76.9078 613.08 74.4128 613.08 71.4877C613.08 68.7776 613.615 66.1966 614.685 63.7446C615.754 61.2926 617.316 59.1633 619.37 57.3566C621.467 55.5069 624.056 54.0443 627.136 52.9688C630.26 51.8504 633.854 51.2912 637.92 51.2912C642.455 51.2912 646.584 52.044 650.307 53.5496C654.03 55.0552 657.132 57.034 659.614 59.4859L656.02 65.2287Z" fill="white"/>
<path d="M98.7116 124.917C60.1291 124.917 24.734 107.217 1.62052 76.3487L0.00878906 74.1945L1.62052 72.0403C24.716 41.1632 60.102 23.4448 98.7116 23.4448C137.321 23.4448 172.689 41.1632 195.803 72.0493L197.414 74.2035L195.803 76.3577C172.689 107.226 137.303 124.926 98.7116 124.926V124.917ZM9.04889 74.1945C30.8028 101.894 63.3255 117.719 98.7025 117.719C134.08 117.719 166.611 101.894 188.356 74.1945C166.602 46.477 134.08 30.6345 98.7025 30.6345C63.3255 30.6345 30.7937 46.477 9.04889 74.1945Z" fill="#8270DC"/>
<path d="M9.0491 50.7587C30.803 78.4583 63.3257 94.2828 98.7028 94.2828C134.08 94.2828 166.612 78.4583 188.356 50.7587C166.603 23.0411 134.08 7.19867 98.7028 7.19867C63.3257 7.19867 30.794 23.0321 9.0491 50.7587ZM98.7028 101.481C60.1203 101.481 24.7252 83.781 1.61173 52.9129L0 50.7587L1.61173 48.6045C24.7162 17.7184 60.1023 0 98.7118 0C137.321 0 172.689 17.7184 195.803 48.6045L197.415 50.7587L195.803 52.9129C172.689 83.781 137.303 101.481 98.7118 101.481H98.7028Z" fill="#6347D9"/>
<path d="M98.7125 164.771L2.729 110.458L6.29462 104.201L98.7125 156.495L191.13 104.201L194.687 110.458L98.7125 164.771Z" fill="#B4A6E6"/>
</svg>
