<svg width="83" height="22" viewBox="0 0 83 22" fill="none" xmlns="http://www.w3.org/2000/svg">
<path d="M5.99328 16.8509C3.59218 16.8509 1.86224 16.2919 0.336304 14.749L1.952 13.1614C3.11889 14.3241 4.39799 14.6819 6.03816 14.6819C8.1251 14.6819 9.33891 13.7875 9.33891 12.2425C9.33891 11.5494 9.13695 10.968 8.71058 10.5879C8.30666 10.2077 7.90274 10.0512 6.96025 9.91704L5.07527 9.64871C3.77374 9.46982 2.73945 9.02261 2.0438 8.37415C1.25839 7.63624 0.876908 6.63001 0.876908 5.33106C0.876908 2.5563 2.89857 0.65564 6.21972 0.65564C8.3291 0.65564 9.8122 1.1923 11.1811 2.46686L9.63268 3.98738C8.64531 3.04823 7.50086 2.75754 6.1524 2.75754C4.26742 2.75754 3.23313 3.83086 3.23313 5.24162C3.23313 5.82299 3.41265 6.33729 3.83901 6.71742C4.24294 7.07519 4.89371 7.34352 5.63424 7.45533L7.45189 7.72365C8.93295 7.94726 9.76527 8.30503 10.4385 8.90877C11.3136 9.66903 11.74 10.8094 11.74 12.1755C11.74 15.1068 9.33891 16.8509 5.99328 16.8509Z" fill="white"/>
<path d="M14.6594 3.13767V0.722717H17.0829V3.13767H14.6594ZM14.7267 16.7167V5.37578H17.0156V16.7167H14.7267Z" fill="white"/>
<path d="M24.4718 21.4369C22.7439 21.4369 21.6423 21.0344 20.453 19.9387L21.9116 18.4852C22.6297 19.1561 23.258 19.4915 24.38 19.4915C26.3099 19.4915 27.0524 18.1275 27.0524 16.6049V15.1515C26.2221 16.1353 25.2796 16.4484 24.1107 16.4484C22.9418 16.4484 22.0238 16.0683 21.3934 15.4422C20.2938 14.3465 20.1143 12.7568 20.1143 10.8338C20.1143 8.9108 20.2938 7.32115 21.3934 6.22548C22.0217 5.59938 22.9867 5.24161 24.1311 5.24161C25.3429 5.24161 26.2629 5.55466 27.1177 6.58325V5.37577H29.3393V16.6496C29.3393 19.4244 27.4992 21.4369 24.4677 21.4369H24.4718ZM24.7411 7.27643C22.6766 7.27643 22.4053 9.04293 22.4053 10.8338C22.4053 12.6247 22.6745 14.3912 24.7411 14.3912C26.8076 14.3912 27.0524 12.6247 27.0524 10.8338C27.0524 9.04293 26.8056 7.27643 24.7411 7.27643Z" fill="white"/>
<path d="M37.4912 16.8509C35.0901 16.8509 33.3602 16.2919 31.8342 14.749L33.4499 13.1614C34.6168 14.3241 35.8959 14.6819 37.5361 14.6819C39.623 14.6819 40.8368 13.7875 40.8368 12.2425C40.8368 11.5494 40.6349 10.968 40.2085 10.5879C39.8046 10.2077 39.4007 10.0512 38.4582 9.91704L36.5732 9.64871C35.2717 9.46982 34.2374 9.02261 33.5417 8.37415C32.7563 7.63624 32.3748 6.63001 32.3748 5.33106C32.3748 2.5563 34.3965 0.65564 37.7176 0.65564C39.827 0.65564 41.3101 1.1923 42.679 2.46686L41.1306 3.98738C40.1432 3.04823 38.9988 2.75754 37.6503 2.75754C35.7653 2.75754 34.7311 3.83086 34.7311 5.24162C34.7311 5.82299 34.9106 6.33729 35.3369 6.71742C35.7409 7.07519 36.3916 7.34352 37.1322 7.45533L38.9498 7.72365C40.4309 7.94726 41.2612 8.30503 41.9364 8.90877C42.8116 9.66903 43.2379 10.8094 43.2379 12.1755C43.2379 15.1068 40.8368 16.8509 37.4912 16.8509Z" fill="white"/>
<path d="M50.7146 16.8509C48.1565 16.8509 45.6411 15.2856 45.6411 11.0351C45.6411 6.7845 48.1565 5.24161 50.7146 5.24161C52.2855 5.24161 53.3871 5.68882 54.4642 6.82922L52.8934 8.34975C52.1753 7.56712 51.6143 7.27643 50.7167 7.27643C49.8191 7.27643 49.101 7.6342 48.6073 8.28266C48.1136 8.90876 47.9341 9.71375 47.9341 11.0351C47.9341 12.3564 48.1136 13.1817 48.6073 13.8098C49.101 14.4583 49.8415 14.8161 50.7167 14.8161C51.5919 14.8161 52.1753 14.5254 52.8934 13.7427L54.4642 15.2409C53.3871 16.3813 52.2875 16.8509 50.7146 16.8509Z" fill="white"/>
<path d="M63.1526 16.7147V15.6861C62.3223 16.5134 61.5369 16.8488 60.1211 16.8488C58.7054 16.8488 57.7629 16.5134 57.0672 15.8203C56.4838 15.2165 56.1696 14.3444 56.1696 13.3829C56.1696 11.4823 57.4936 10.1162 60.0987 10.1162H63.1077V9.31126C63.1077 7.88017 62.3896 7.18699 60.6169 7.18699C59.3602 7.18699 58.7543 7.47768 58.124 8.28266L56.6205 6.87394C57.6976 5.62174 58.8196 5.24161 60.7066 5.24161C63.8279 5.24161 65.3987 6.56089 65.3987 9.1344V16.7187H63.1526V16.7147ZM63.1077 11.7039H60.4353C59.0889 11.7039 58.3932 12.3076 58.3932 13.3362C58.3932 14.3648 59.044 14.9462 60.4802 14.9462C61.3553 14.9462 62.0061 14.8791 62.612 14.2977C62.9486 13.9623 63.1057 13.4256 63.1057 12.6206V11.7039H63.1077Z" fill="white"/>
<path d="M71.5269 16.7147C69.3502 16.7147 68.4056 15.2613 68.4056 13.5822V0.787781H70.6966V13.45C70.6966 14.3221 71.0108 14.7693 71.9308 14.7693H72.9406V16.7147H71.5269Z" fill="white"/>
<path d="M81.27 8.0367C80.7539 7.5224 80.35 7.27643 79.5646 7.27643C78.3303 7.27643 77.296 8.2603 77.296 9.82758V16.7167H75.0071V5.37577H77.2512V6.60561C77.8346 5.80063 79.0015 5.24161 80.2826 5.24161C81.3822 5.24161 82.2125 5.5323 82.9999 6.31492L81.272 8.0367H81.27Z" fill="white"/>
</svg>
