<svg width="45" height="38" viewBox="0 0 45 38" fill="none" xmlns="http://www.w3.org/2000/svg">
<path d="M22.3648 28.2903C13.6233 28.2903 5.60397 24.2816 0.367239 17.2908L0.0020752 16.803L0.367239 16.3151C5.59989 9.3223 13.6172 5.30957 22.3648 5.30957C31.1124 5.30957 39.1256 9.3223 44.3623 16.3171L44.7275 16.805L44.3623 17.2929C39.1256 24.2836 31.1083 28.2923 22.3648 28.2923V28.2903ZM2.05026 16.803C6.97894 23.0762 14.3475 26.66 22.3627 26.66C30.378 26.66 37.7486 23.0762 42.6752 16.803C37.7465 10.5257 30.378 6.93784 22.3627 6.93784C14.3475 6.93784 6.9769 10.5257 2.05026 16.803Z" fill="#8270DC"/>
<path d="M2.05022 11.4954C6.97891 17.7686 14.3475 21.3524 22.3627 21.3524C30.3779 21.3524 37.7485 17.7686 42.6752 11.4954C37.7465 5.21817 30.3779 1.6303 22.3627 1.6303C14.3475 1.6303 6.97687 5.21614 2.05022 11.4954ZM22.3627 22.9827C13.6212 22.9827 5.6019 18.9741 0.365164 11.9833L0 11.4954L0.365164 11.0076C5.59986 4.01273 13.6171 0 22.3647 0C31.1123 0 39.1255 4.01273 44.3623 11.0076L44.7274 11.4954L44.3623 11.9833C39.1255 18.9741 31.1083 22.9827 22.3647 22.9827H22.3627Z" fill="#6347D9"/>
<path d="M22.3648 37.316L0.618164 25.0156L1.42601 23.5987L22.3648 35.4418L43.3035 23.5987L44.1094 25.0156L22.3648 37.316Z" fill="#B4A6E6"/>
</svg>
