<svg width="16" height="16" viewBox="0 0 16 16" fill="none" xmlns="http://www.w3.org/2000/svg">
<path d="M15.9915 6.18376C15.9907 5.50963 15.7225 4.86335 15.2458 4.38667C14.7691 3.90998 14.1229 3.64183 13.4487 3.64101C13.0709 3.64304 12.6985 3.73022 12.359 3.89606V2.55127C12.3598 2.04578 12.2096 1.55157 11.9278 1.13193C11.646 0.712287 11.2453 0.386325 10.7771 0.195789C10.3089 0.00525296 9.79449 -0.0411834 9.29973 0.0624275C8.80498 0.166038 8.35241 0.41498 8 0.777368C7.5818 0.342449 7.02208 0.0710889 6.42161 0.0121282C5.82113 -0.0468325 5.21933 0.110479 4.72452 0.455748C4.2297 0.801017 3.87438 1.31157 3.72251 1.8955C3.57063 2.47944 3.63218 3.09841 3.89606 3.64101H2.55127C2.04578 3.64024 1.55157 3.79038 1.13193 4.0722C0.712287 4.35401 0.386325 4.75468 0.195789 5.22289C0.00525296 5.69109 -0.0411834 6.20551 0.0624275 6.70027C0.166038 7.19502 0.41498 7.64759 0.777368 8C0.342449 8.41821 0.0710889 8.97792 0.0121282 9.57839C-0.0468325 10.1789 0.110479 10.7807 0.455748 11.2755C0.801017 11.7703 1.31157 12.1256 1.8955 12.2775C2.47944 12.4294 3.09841 12.3678 3.64101 12.1039V13.4487C3.64024 13.9542 3.79038 14.4484 4.0722 14.8681C4.35401 15.2877 4.75468 15.6137 5.22289 15.8042C5.69109 15.9947 6.20551 16.0412 6.70027 15.9376C7.19502 15.834 7.64759 15.585 8 15.2226C8.41821 15.6576 8.97792 15.9289 9.57839 15.9879C10.1789 16.0468 10.7807 15.8895 11.2755 15.5443C11.7703 15.199 12.1256 14.6884 12.2775 14.1045C12.4294 13.5206 12.3678 12.9016 12.1039 12.359H13.4487C13.9542 12.3598 14.4484 12.2096 14.8681 11.9278C15.2877 11.646 15.6137 11.2453 15.8042 10.7771C15.9947 10.3089 16.0412 9.79449 15.9376 9.29973C15.834 8.80498 15.585 8.35241 15.2226 8C15.4658 7.76408 15.6591 7.48178 15.7911 7.16981C15.9232 6.85783 15.9913 6.52253 15.9915 6.18376ZM8.7265 2.55127C8.7265 2.26225 8.84131 1.98506 9.04568 1.7807C9.25005 1.57633 9.52723 1.46152 9.81625 1.46152C10.1053 1.46152 10.3824 1.57633 10.5868 1.7807C10.7912 1.98506 10.906 2.26225 10.906 2.55127V6.18376C10.906 6.47277 10.7912 6.74996 10.5868 6.95432C10.3824 7.15869 10.1053 7.2735 9.81625 7.2735C9.52723 7.2735 9.25005 7.15869 9.04568 6.95432C8.84131 6.74996 8.7265 6.47277 8.7265 6.18376V2.55127ZM3.64101 9.81625C3.64101 10.0318 3.5771 10.2425 3.45736 10.4217C3.33761 10.6009 3.16742 10.7406 2.96829 10.823C2.76917 10.9055 2.55006 10.9271 2.33867 10.8851C2.12728 10.843 1.9331 10.7392 1.7807 10.5868C1.62829 10.4344 1.52451 10.2402 1.48246 10.0288C1.44041 9.81746 1.46199 9.59834 1.54447 9.39922C1.62695 9.20009 1.76663 9.0299 1.94583 8.91015C2.12504 8.79041 2.33573 8.7265 2.55127 8.7265H3.64101V9.81625ZM7.2735 13.4487C7.2735 13.7378 7.15869 14.0149 6.95432 14.2193C6.74996 14.4237 6.47277 14.5385 6.18376 14.5385C5.89474 14.5385 5.61756 14.4237 5.41319 14.2193C5.20882 14.0149 5.09401 13.7378 5.09401 13.4487V9.81625C5.09401 9.52723 5.20882 9.25005 5.41319 9.04568C5.61756 8.84131 5.89474 8.7265 6.18376 8.7265C6.47277 8.7265 6.74996 8.84131 6.95432 9.04568C7.15869 9.25005 7.2735 9.52723 7.2735 9.81625V13.4487ZM6.18376 7.2735H2.55127C2.26225 7.2735 1.98506 7.15869 1.7807 6.95432C1.57633 6.74996 1.46152 6.47277 1.46152 6.18376C1.46152 5.89474 1.57633 5.61756 1.7807 5.41319C1.98506 5.20882 2.26225 5.09401 2.55127 5.09401H6.18376C6.47277 5.09401 6.74996 5.20882 6.95432 5.41319C7.15869 5.61756 7.2735 5.89474 7.2735 6.18376C7.2735 6.47277 7.15869 6.74996 6.95432 6.95432C6.74996 7.15869 6.47277 7.2735 6.18376 7.2735ZM7.2735 3.64101H6.18376C5.96822 3.64101 5.75753 3.5771 5.57832 3.45736C5.39912 3.33761 5.25944 3.16742 5.17696 2.96829C5.09448 2.76917 5.0729 2.55006 5.11495 2.33867C5.157 2.12728 5.26078 1.9331 5.41319 1.7807C5.56559 1.62829 5.75977 1.52451 5.97116 1.48246C6.18255 1.44041 6.40166 1.46199 6.60078 1.54447C6.79991 1.62695 6.9701 1.76663 7.08985 1.94583C7.20959 2.12504 7.2735 2.33573 7.2735 2.55127V3.64101ZM8 8.04235C7.98594 8.02798 7.97202 8.01406 7.95765 8C7.97202 7.98594 7.98594 7.97202 8 7.95765C8.01406 7.97202 8.02798 7.98594 8.04235 8C8.02798 8.01406 8.01406 8.02798 8 8.04235ZM9.81625 14.5385C9.52732 14.5382 9.25033 14.4233 9.04603 14.219C8.84173 14.0147 8.72681 13.7377 8.7265 13.4487V12.359H9.81625C10.1053 12.359 10.3824 12.4738 10.5868 12.6782C10.7912 12.8825 10.906 13.1597 10.906 13.4487C10.906 13.7378 10.7912 14.0149 10.5868 14.2193C10.3824 14.4237 10.1053 14.5385 9.81625 14.5385ZM13.4487 10.906H9.81625C9.52723 10.906 9.25005 10.7912 9.04568 10.5868C8.84131 10.3824 8.7265 10.1053 8.7265 9.81625C8.7265 9.52723 8.84131 9.25005 9.04568 9.04568C9.25005 8.84131 9.52723 8.7265 9.81625 8.7265H13.4487C13.7378 8.7265 14.0149 8.84131 14.2193 9.04568C14.4237 9.25005 14.5385 9.52723 14.5385 9.81625C14.5385 10.1053 14.4237 10.3824 14.2193 10.5868C14.0149 10.7912 13.7378 10.906 13.4487 10.906ZM13.4487 7.2735H12.359V6.18376C12.359 5.96822 12.4229 5.75753 12.5426 5.57832C12.6624 5.39912 12.8326 5.25944 13.0317 5.17696C13.2308 5.09448 13.4499 5.0729 13.6613 5.11495C13.8727 5.157 14.0669 5.26078 14.2193 5.41319C14.3717 5.56559 14.4755 5.75977 14.5175 5.97116C14.5596 6.18255 14.538 6.40166 14.4555 6.60078C14.3731 6.79991 14.2334 6.9701 14.0542 7.08985C13.875 7.20959 13.6643 7.2735 13.4487 7.2735Z" fill="#B4A6E6"/>
</svg>
