<svg width="17" height="16" viewBox="0 0 17 16" fill="none" xmlns="http://www.w3.org/2000/svg">
<path d="M8.31937 1.75623C8.49898 1.20344 9.28102 1.20344 9.46063 1.75623L10.7512 5.72825C10.8315 5.97546 11.0619 6.14284 11.3219 6.14284L15.4983 6.14284C16.0795 6.14284 16.3212 6.88661 15.851 7.22825L12.4722 9.68309C12.2619 9.83588 12.1739 10.1067 12.2542 10.3539L13.5448 14.3259C13.7244 14.8787 13.0917 15.3384 12.6215 14.9968L9.24267 12.5419C9.03238 12.3891 8.74762 12.3891 8.53733 12.5419L5.15853 14.9968C4.6883 15.3384 4.05561 14.8787 4.23522 14.3259L5.52581 10.3539C5.60614 10.1067 5.51814 9.83588 5.30785 9.68309L1.92904 7.22825C1.45882 6.88661 1.70048 6.14284 2.28172 6.14284L6.45815 6.14284C6.71808 6.14284 6.94845 5.97546 7.02878 5.72825L8.31937 1.75623Z" stroke="#6F6B7B" stroke-width="1.5"/>
</svg>
