<svg width="18" height="18" viewBox="0 0 18 18" fill="none" xmlns="http://www.w3.org/2000/svg">
<path d="M5.33004 6.50171H1.66997C1.29995 6.50171 1 6.80166 1 7.17168V10.8317C1 11.2018 1.29995 11.5017 1.66997 11.5017H5.33004C5.70005 11.5017 6.00001 11.2018 6.00001 10.8317V7.17168C6.00001 6.80166 5.70005 6.50171 5.33004 6.50171Z" stroke="#B4A6E6" stroke-width="1.5" stroke-miterlimit="10" stroke-linecap="round"/>
<path d="M15.0132 10.9868C16.1104 10.9868 17 10.0973 17 8.99998C17 7.9027 16.1104 7.01318 15.0132 7.01318C13.9159 7.01318 13.0264 7.9027 13.0264 8.99998C13.0264 10.0973 13.9159 10.9868 15.0132 10.9868Z" stroke="#B4A6E6" stroke-width="1.5" stroke-miterlimit="10" stroke-linecap="round"/>
<path d="M15.0132 17.0002C16.1104 17.0002 17 16.1107 17 15.0134C17 13.9161 16.1104 13.0266 15.0132 13.0266C13.9159 13.0266 13.0264 13.9161 13.0264 15.0134C13.0264 16.1107 13.9159 17.0002 15.0132 17.0002Z" stroke="#B4A6E6" stroke-width="1.5" stroke-miterlimit="10" stroke-linecap="round"/>
<path d="M15.0132 4.9736C16.1104 4.9736 17 4.08408 17 2.9868C17 1.88952 16.1104 1 15.0132 1C13.9159 1 13.0264 1.88952 13.0264 2.9868C13.0264 4.08408 13.9159 4.9736 15.0132 4.9736Z" stroke="#B4A6E6" stroke-width="1.5" stroke-miterlimit="10" stroke-linecap="round"/>
<path d="M6 9H13.0264" stroke="#B4A6E6" stroke-width="1.5" stroke-miterlimit="10" stroke-linecap="round"/>
<path d="M13.0099 2.98682H9.63369C9.27395 2.98682 8.98352 3.27725 8.98352 3.63698V14.3664C8.98352 14.7261 9.27395 15.0165 9.63369 15.0165H13.0099" stroke="#B4A6E6" stroke-width="1.5" stroke-miterlimit="10" stroke-linecap="round"/>
</svg>
