<svg width="21" height="21" viewBox="0 0 21 21" fill="none" xmlns="http://www.w3.org/2000/svg">
<path d="M6.14192 7.5332H1.79559C1.3562 7.5332 1 7.8894 1 8.32879V12.6751C1 13.1145 1.3562 13.4707 1.79559 13.4707H6.14192C6.58131 13.4707 6.93751 13.1145 6.93751 12.6751V8.32879C6.93751 7.8894 6.58131 7.5332 6.14192 7.5332Z" stroke="#B4A6E6" stroke-width="1.8" stroke-miterlimit="10" stroke-linecap="round"/>
<path d="M17.6406 12.8593C18.9436 12.8593 19.9999 11.803 19.9999 10.5C19.9999 9.19693 18.9436 8.14062 17.6406 8.14062C16.3376 8.14062 15.2812 9.19693 15.2812 10.5C15.2812 11.803 16.3376 12.8593 17.6406 12.8593Z" stroke="#B4A6E6" stroke-width="1.8" stroke-miterlimit="10" stroke-linecap="round"/>
<path d="M17.6406 20.0001C18.9436 20.0001 19.9999 18.9438 19.9999 17.6408C19.9999 16.3378 18.9436 15.2815 17.6406 15.2815C16.3376 15.2815 15.2812 16.3378 15.2812 17.6408C15.2812 18.9438 16.3376 20.0001 17.6406 20.0001Z" stroke="#B4A6E6" stroke-width="1.8" stroke-miterlimit="10" stroke-linecap="round"/>
<path d="M17.6406 5.71865C18.9436 5.71865 19.9999 4.66235 19.9999 3.35933C19.9999 2.05631 18.9436 1 17.6406 1C16.3376 1 15.2812 2.05631 15.2812 3.35933C15.2812 4.66235 16.3376 5.71865 17.6406 5.71865Z" stroke="#B4A6E6" stroke-width="1.8" stroke-miterlimit="10" stroke-linecap="round"/>
<path d="M6.9375 10.5H15.2814" stroke="#B4A6E6" stroke-width="1.8" stroke-miterlimit="10" stroke-linecap="round"/>
<path d="M15.2618 3.35938H11.2525C10.8254 3.35938 10.4805 3.70426 10.4805 4.13145V16.8726C10.4805 17.2998 10.8254 17.6447 11.2525 17.6447H15.2618" stroke="#B4A6E6" stroke-width="1.8" stroke-miterlimit="10" stroke-linecap="round"/>
</svg>
