<svg width="18" height="18" viewBox="0 0 18 18" fill="none" xmlns="http://www.w3.org/2000/svg">
<path d="M13.3542 16.7938L1.73905 1.86044C1.67783 1.78161 1.63996 1.68718 1.62975 1.58788C1.61954 1.48859 1.6374 1.38843 1.6813 1.29879C1.72519 1.20914 1.79336 1.13362 1.87806 1.0808C1.96275 1.02798 2.06057 0.999982 2.16038 1H4.36482C4.44598 1.00012 4.52603 1.01876 4.59889 1.0545C4.67175 1.09023 4.7355 1.14213 4.78527 1.20622L16.4004 16.1396C16.4616 16.2184 16.4995 16.3128 16.5097 16.4121C16.5199 16.5114 16.502 16.6116 16.4581 16.7012C16.4142 16.7909 16.3461 16.8664 16.2614 16.9192C16.1767 16.972 16.0789 17 15.979 17H13.7746C13.6935 16.9999 13.6134 16.9812 13.5405 16.9455C13.4677 16.9098 13.4039 16.8579 13.3542 16.7938Z" stroke="#B4A6E6" stroke-width="1.5"/>
<path d="M16.1807 1L1.9585 17" stroke="#B4A6E6" stroke-width="1.5" stroke-linecap="round"/>
</svg>
