<svg width="22" height="20" viewBox="0 0 22 20" fill="none" xmlns="http://www.w3.org/2000/svg">
<path d="M4.75 13H1V10V7H2.5H4.75L10.75 1V19L4.75 13Z" stroke="#6F6B7B" stroke-width="1.5" stroke-linejoin="round"/>
<path fill-rule="evenodd" clip-rule="evenodd" d="M21.3368 10.3284C21.3406 12.6964 20.6171 15.0006 19.2757 16.9342C18.9941 17.3401 18.4174 17.3678 18.0676 17.019V17.019C17.7669 16.7191 17.7422 16.2434 17.9799 15.8915C19.0865 14.2535 19.6814 12.3165 19.6788 10.3284C19.6788 8.27394 19.0554 6.36368 17.9879 4.77806C17.751 4.42628 17.7762 3.95148 18.0765 3.65204V3.65204C18.4267 3.30286 19.0042 3.33103 19.2855 3.73776C20.6205 5.66825 21.3404 7.96663 21.3368 10.3284ZM18.0208 10.3284C18.0232 11.7998 17.6324 13.2389 16.8972 14.5001C16.6387 14.9435 16.0352 14.9848 15.6723 14.6218V14.6218C15.383 14.3325 15.348 13.88 15.5449 13.5213C16.08 12.5461 16.3632 11.4483 16.3628 10.3284C16.363 9.21321 16.082 8.11997 15.551 7.14788C15.3552 6.78958 15.3906 6.33818 15.6793 6.04948V6.04948C16.0426 5.68613 16.6469 5.72806 16.9049 6.17243C17.6144 7.39419 18.0208 8.81363 18.0208 10.3284ZM14.7048 10.3284C14.7048 10.8828 14.6148 11.4158 14.4478 11.9136C14.2664 12.4546 13.5875 12.5376 13.1838 12.1344V12.1344C12.9229 11.8739 12.8627 11.4809 12.9512 11.123C13.0147 10.8665 13.0475 10.6025 13.0483 10.3367C13.0491 10.0694 13.0176 9.80377 12.955 9.54543C12.8686 9.18935 12.9295 8.79926 13.1886 8.54018V8.54018C13.5933 8.13544 14.2744 8.22015 14.454 8.76362C14.6167 9.25588 14.7048 9.78215 14.7048 10.3284Z" fill="#6F6B7B"/>
</svg>
